<svg width="16" height="16" viewBox="0 0 16 16" fill="none" xmlns="http://www.w3.org/2000/svg">
<g clip-path="url(#clip0_227_14708)">
<path fill-rule="evenodd" clip-rule="evenodd" d="M7.99935 15.3334C12.0494 15.3334 15.3327 12.0502 15.3327 8.00008C15.3327 3.94999 12.0494 0.666748 7.99935 0.666748C3.94926 0.666748 0.666016 3.94999 0.666016 8.00008C0.666016 12.0502 3.94926 15.3334 7.99935 15.3334ZM11.4359 6.46043C11.7427 6.15359 11.7427 5.6561 11.4359 5.34926C11.129 5.04242 10.6316 5.04242 10.3247 5.34926L6.68983 8.98415L5.41208 7.7064C5.10524 7.39956 4.60775 7.39956 4.30091 7.7064C3.99407 8.01324 3.99407 8.51073 4.30091 8.81757L6.13424 10.6509C6.44108 10.9577 6.93857 10.9577 7.24541 10.6509L11.4359 6.46043Z" fill="#ED1D25"/>
</g>
<defs>
<clipPath id="clip0_227_14708">
<rect width="16" height="16" fill="white"/>
</clipPath>
</defs>
</svg>
