<svg width="28" height="28" viewBox="0 0 28 28" fill="none" xmlns="http://www.w3.org/2000/svg">
<path d="M14 25.6667C12.3861 25.6667 10.8694 25.3603 9.44998 24.7474C8.03054 24.1345 6.79581 23.3034 5.74581 22.2542C4.69581 21.205 3.86476 19.9703 3.25265 18.55C2.64054 17.1298 2.33409 15.6131 2.33331 14C2.33331 12.5417 2.61526 11.1125 3.17915 9.71253C3.74304 8.31253 4.53054 7.06303 5.54165 5.96403C6.55276 4.86503 7.76803 3.98031 9.18748 3.30987C10.6069 2.63942 12.1625 2.3042 13.8541 2.3042C14.2625 2.3042 14.6805 2.32364 15.1083 2.36253C15.5361 2.40142 15.9736 2.46948 16.4208 2.5667C16.2458 3.4417 16.3041 4.26809 16.5958 5.04587C16.8875 5.82364 17.325 6.46998 17.9083 6.98487C18.4916 7.49976 19.187 7.85481 19.9943 8.05003C20.8016 8.24526 21.6327 8.19664 22.4875 7.9042C21.9819 9.05142 22.055 10.15 22.7068 11.2C23.3586 12.25 24.3258 12.7945 25.6083 12.8334C25.6278 13.0473 25.6425 13.2464 25.6526 13.4307C25.6628 13.615 25.6674 13.8145 25.6666 14.0292C25.6666 15.6236 25.3602 17.1255 24.7473 18.5349C24.1344 19.9442 23.3034 21.1789 22.2541 22.239C21.2049 23.2991 19.9702 24.1353 18.55 24.7474C17.1298 25.3595 15.6131 25.6659 14 25.6667ZM12.25 11.6667C12.7361 11.6667 13.1495 11.4968 13.4901 11.1569C13.8308 10.817 14.0008 10.4036 14 9.9167C13.9992 9.42981 13.8293 9.01681 13.4901 8.6777C13.151 8.33859 12.7376 8.16826 12.25 8.1667C11.7623 8.16514 11.3493 8.33548 11.011 8.6777C10.6726 9.01992 10.5023 9.43292 10.5 9.9167C10.4976 10.4005 10.668 10.8139 11.011 11.1569C11.354 11.4999 11.767 11.6698 12.25 11.6667ZM9.91665 17.5C10.4028 17.5 10.8161 17.3301 11.1568 16.9902C11.4975 16.6503 11.6674 16.2369 11.6666 15.75C11.6659 15.2631 11.4959 14.8501 11.1568 14.511C10.8177 14.1719 10.4043 14.0016 9.91665 14C9.42898 13.9985 9.01598 14.1688 8.67765 14.511C8.33931 14.8533 8.16898 15.2663 8.16665 15.75C8.16431 16.2338 8.33465 16.6472 8.67765 16.9902C9.02065 17.3332 9.43365 17.5031 9.91665 17.5ZM17.5 18.6667C17.8305 18.6667 18.1078 18.5547 18.3318 18.3307C18.5558 18.1067 18.6674 17.8298 18.6666 17.5C18.6659 17.1703 18.5539 16.8934 18.3306 16.6694C18.1074 16.4454 17.8305 16.3334 17.5 16.3334C17.1694 16.3334 16.8925 16.4454 16.6693 16.6694C16.4461 16.8934 16.3341 17.1703 16.3333 17.5C16.3325 17.8298 16.4445 18.1071 16.6693 18.3319C16.8941 18.5566 17.171 18.6683 17.5 18.6667Z" fill="white"/>
</svg>
