<svg width="20" height="20" viewBox="0 0 20 20" fill="none" xmlns="http://www.w3.org/2000/svg">
<g clip-path="url(#clip0_508_11954)">
<path d="M10.6328 0C10.5045 0.00599078 10.3935 0.0076381 10.3018 0C10.3366 2.03177 10.3197 4.13111 11.0244 6.06738C11.5059 7.45151 12.6638 8.5379 14.042 9.02246C15.9506 9.67373 18.0008 9.64538 19.9932 9.71484C19.992 9.63932 19.9949 9.56219 20 9.4834V10.3174C18.1263 10.3608 16.2247 10.3766 14.4033 10.875C12.9257 11.2936 11.6104 12.3741 11.0713 13.8242C10.3142 15.7867 10.3487 17.9297 10.2998 19.998C10.3529 19.9959 10.4095 19.9982 10.4688 20H9.68066C9.63879 18.3623 9.62849 16.7084 9.29004 15.0967C8.9934 13.5911 8.16106 12.0959 6.74805 11.377C5.199 10.5669 3.45177 10.4232 1.71973 10.3682L0 10.3213V9.65625C0.000284646 9.67593 0.00195257 9.69545 0.00195312 9.71484C2.15461 9.62802 4.40331 9.69262 6.41992 8.82617C7.75977 8.21485 8.74879 6.96533 9.13086 5.55859C9.64369 3.76118 9.61639 1.87153 9.69141 0.0185547C9.54987 0.0259894 9.38462 0.0187136 9.19922 0H10.6328Z" fill="white"/>
</g>
<defs>
<clipPath id="clip0_508_11954">
<rect width="20" height="20" fill="white"/>
</clipPath>
</defs>
</svg>
