<svg width="40" height="40" viewBox="0 0 40 40" fill="none" xmlns="http://www.w3.org/2000/svg">
<path d="M0 8C0 3.58172 3.58172 0 8 0H32C36.4183 0 40 3.58172 40 8V32C40 36.4183 36.4183 40 32 40H8C3.58172 40 0 36.4183 0 32V8Z" fill="#ECECEC"/>
<g clip-path="url(#clip0_508_6375)">
<path d="M20.0009 23C21.6577 23 23.0009 21.6569 23.0009 20C23.0009 18.3431 21.6577 17 20.0009 17C18.344 17 17.0009 18.3431 17.0009 20C17.0009 21.6569 18.344 23 20.0009 23Z" fill="#636363"/>
<path fill-rule="evenodd" clip-rule="evenodd" d="M31.929 19.6277C31.9292 19.6282 31.9293 19.6286 31.0009 20C31.9293 20.3714 31.9292 20.3718 31.929 20.3723L31.9285 20.3734L31.9274 20.3761L31.9244 20.3836L31.9149 20.4066C31.907 20.4254 31.8961 20.4512 31.882 20.4836C31.8539 20.5482 31.8131 20.639 31.7592 20.7522C31.6515 20.9784 31.4908 21.2951 31.273 21.6722C30.8384 22.4244 30.1702 23.4271 29.2319 24.4323C27.3493 26.4494 24.3513 28.5 20.0009 28.5C15.6505 28.5 12.6524 26.4494 10.7698 24.4323C9.83157 23.4271 9.16337 22.4244 8.72875 21.6722C8.51091 21.2951 8.35027 20.9784 8.24253 20.7522C8.18863 20.639 8.14786 20.5482 8.11969 20.4836C8.10561 20.4512 8.09467 20.4254 8.08681 20.4066L8.07732 20.3836L8.07428 20.3761L8.07319 20.3734L8.07275 20.3723C8.07256 20.3718 8.07238 20.3714 9.00086 20C8.07238 19.6286 8.07256 19.6282 8.07275 19.6277L8.07319 19.6266L8.07428 19.6239L8.07732 19.6164L8.08681 19.5934C8.09467 19.5746 8.10561 19.5488 8.11969 19.5164C8.14786 19.4518 8.18863 19.361 8.24253 19.2478C8.35027 19.0216 8.51091 18.7049 8.72875 18.3278C9.16337 17.5756 9.83157 16.5729 10.7698 15.5677C12.6524 13.5506 15.6505 11.5 20.0009 11.5C24.3513 11.5 27.3493 13.5506 29.2319 15.5677C30.1702 16.5729 30.8384 17.5756 31.273 18.3278C31.4908 18.7049 31.6515 19.0216 31.7592 19.2478C31.8131 19.361 31.8539 19.4518 31.882 19.5164C31.8961 19.5488 31.907 19.5746 31.9149 19.5934L31.9244 19.6164L31.9274 19.6239L31.9285 19.6266L31.929 19.6277ZM25.0009 20C25.0009 22.7614 22.7623 25 20.0009 25C17.2394 25 15.0009 22.7614 15.0009 20C15.0009 17.2386 17.2394 15 20.0009 15C22.7623 15 25.0009 17.2386 25.0009 20Z" fill="#636363"/>
<path d="M9.00086 20L8.07275 20.3723L7.92383 20L8.07275 19.6277L9.00086 20Z" fill="#636363"/>
<path d="M31.0009 20L31.929 20.3723L32.0779 20L31.929 19.6277L31.0009 20Z" fill="#636363"/>
</g>
<defs>
<clipPath id="clip0_508_6375">
<rect width="24" height="24" fill="white" transform="translate(8 8)"/>
</clipPath>
</defs>
</svg>
