<svg width="12" height="12" viewBox="0 0 12 12" fill="none" xmlns="http://www.w3.org/2000/svg">
<g clip-path="url(#clip0_336_15317)">
<path fill-rule="evenodd" clip-rule="evenodd" d="M6.96408 0.564306C6.90679 0.421081 6.78659 0.312319 6.63837 0.269579C6.49016 0.226839 6.33051 0.254906 6.20575 0.345636C4.62492 1.49533 4.42874 3.15484 4.59787 4.44023C4.65299 4.85916 4.74719 5.24706 4.84861 5.579C4.60142 5.32616 4.38909 4.97228 4.20942 4.55304C4.03673 4.1501 3.91964 3.7419 3.84563 3.43107C3.80886 3.27662 3.78326 3.1485 3.76702 3.06007C3.7589 3.01591 3.75315 2.98179 3.74953 2.9594L3.74566 2.93487L3.74477 2.92889C3.71828 2.74454 3.59153 2.59019 3.41583 2.52836C3.24 2.46648 3.04436 2.50755 2.90825 2.63489L3.2497 2.99985C2.90825 2.63489 2.9078 2.63531 2.90767 2.63544L2.90694 2.63612L2.90506 2.6379L2.89962 2.64307C2.89526 2.64725 2.88945 2.65286 2.88228 2.65988C2.86796 2.67393 2.8482 2.69364 2.82382 2.7188C2.77507 2.76909 2.70763 2.84136 2.62793 2.93387C2.46889 3.11849 2.25897 3.38612 2.05108 3.72297C1.63798 4.39232 1.21504 5.36447 1.25008 6.51522C1.31814 8.75027 3.16162 11.375 5.99985 11.375C8.79503 11.375 10.7499 9.25671 10.7499 6.5C10.7499 5.03247 9.92457 4.09262 9.1034 3.27145C8.9983 3.16634 8.8933 3.06305 8.78913 2.96058C8.05412 2.23753 7.3604 1.5551 6.96408 0.564306Z" fill="#215A97"/>
</g>
<defs>
<clipPath id="clip0_336_15317">
<rect width="12" height="12" fill="white"/>
</clipPath>
</defs>
</svg>
