<svg width="12" height="12" viewBox="0 0 12 12" fill="none" xmlns="http://www.w3.org/2000/svg">
<g clip-path="url(#clip0_227_14070)">
<path d="M7.30417 0.33191C7.13437 0.145964 6.88258 0.0576414 6.63383 0.096765C6.40332 0.133018 6.24946 0.292173 6.18312 0.362061C6.08108 0.469563 5.99006 0.587412 5.89757 0.70305L1.61875 6.05157C1.54525 6.14341 1.47033 6.23703 1.41592 6.31933C1.36387 6.39804 1.27072 6.55066 1.27051 6.74915C1.27026 6.97756 1.37411 7.19363 1.55262 7.33612C1.70775 7.45995 1.88512 7.48255 1.97909 7.49109C2.07735 7.50001 2.19725 7.49999 2.31488 7.49996L4.50035 7.49996L4.50035 10.754C4.50033 10.9121 4.50032 11.0614 4.51031 11.1793C4.51846 11.2753 4.53918 11.4957 4.69653 11.668C4.86633 11.854 5.11812 11.9423 5.36688 11.9032C5.59738 11.8669 5.75125 11.7078 5.81759 11.6379C5.89902 11.5521 5.99231 11.4354 6.09106 11.312L10.3819 5.94837C10.4554 5.85652 10.5304 5.7629 10.5848 5.6806C10.6368 5.60188 10.73 5.44927 10.7302 5.25077C10.7304 5.02237 10.6266 4.80629 10.4481 4.6638C10.293 4.53998 10.1156 4.51737 10.0216 4.50884C9.92336 4.49991 9.80346 4.49994 9.68583 4.49996L7.50035 4.49996L7.50035 1.24596C7.50037 1.08786 7.50038 0.938493 7.49039 0.820628C7.48225 0.724615 7.46152 0.504213 7.30417 0.33191Z" fill="#215A97"/>
</g>
<defs>
<clipPath id="clip0_227_14070">
<rect width="12" height="12" fill="white"/>
</clipPath>
</defs>
</svg>
