<svg width="14" height="14" viewBox="0 0 14 14" fill="none" xmlns="http://www.w3.org/2000/svg">
<path fill-rule="evenodd" clip-rule="evenodd" d="M13.2712 7.00002C13.2712 10.4633 10.4636 13.2709 7.00033 13.2709C3.53704 13.2709 0.729492 10.4633 0.729492 7.00002C0.729492 3.53674 3.53704 0.729187 7.00033 0.729187C10.4636 0.729187 13.2712 3.53674 13.2712 7.00002ZM6.41699 7.00002C6.41699 6.67785 6.67816 6.41669 7.00033 6.41669C7.32249 6.41669 7.58366 6.67785 7.58366 7.00002V9.91669C7.58366 10.2389 7.32249 10.5 7.00033 10.5C6.67816 10.5 6.41699 10.2389 6.41699 9.91669V7.00002ZM7.00033 5.25002C7.48358 5.25002 7.87533 4.85827 7.87533 4.37502C7.87533 3.89177 7.48358 3.50002 7.00033 3.50002C6.51708 3.50002 6.12533 3.89177 6.12533 4.37502C6.12533 4.85827 6.51708 5.25002 7.00033 5.25002Z" fill="#636363"/>
</svg>
