<svg width="24" height="24" viewBox="0 0 24 24" fill="none" xmlns="http://www.w3.org/2000/svg">
<path fill-rule="evenodd" clip-rule="evenodd" d="M8.78276 7.766L6.34304 5.32627C7.8684 4.03218 9.8418 3.2525 11.9984 3.2525C16.8294 3.2525 20.7458 7.16884 20.7458 11.9998C20.7458 14.1565 19.9662 16.1299 18.6721 17.6553L15.8564 14.8396C16.0768 14.4573 16.2309 14.035 16.3031 13.5854C16.4336 12.7898 16.4118 11.9127 16.1072 11.0355C16.0638 10.9335 15.9114 10.9131 15.8896 11.0151C15.7374 11.3823 15.3892 12.0554 14.8234 12.3818C14.323 12.6879 14.2577 12.3818 14.497 11.5455C14.7147 10.7499 15.1498 8.93437 14.6494 7.73081C14.6059 7.64921 14.497 7.64921 14.4535 7.73081C14.0401 8.52638 13.5614 9.07717 13.1045 9.42395C13.1045 9.42395 13.2568 6.99644 11.5813 5.58889C11.516 5.52769 11.3855 5.58889 11.4073 5.67048C11.516 6.38446 11.3855 7.32282 11.0374 7.9756C10.6807 8.66652 10.5774 9.19914 10.557 9.54024L9.8921 8.87535C9.82135 8.59541 9.79639 8.26164 9.86234 7.8736C9.88414 7.77161 9.75358 7.71041 9.6665 7.79201C9.5301 7.92788 9.39286 8.07942 9.26492 8.24815L8.78276 7.766ZM8.6568 9.67646L7.76452 8.78423L5.32481 6.34451C4.03072 7.86987 3.25104 9.8433 3.25104 11.9998C3.25104 16.831 7.16737 20.7473 11.9984 20.7473C14.155 20.7473 16.1285 19.9676 17.6538 18.6735L14.9162 15.9358C14.1796 16.5329 13.221 16.8901 12.1905 16.8901H11.342C8.36095 16.8901 6.25032 13.9934 7.51235 11.4842C7.55587 11.3619 7.62115 11.2599 7.68642 11.1579C7.72993 11.0559 7.88226 11.0967 7.88226 11.1987C7.94753 12.137 8.40448 12.6063 8.73086 12.851C9.14429 13.1774 9.4054 12.8306 8.86142 11.3007C8.64177 10.6829 8.59464 10.1447 8.6568 9.67646ZM11.9984 1.8125C9.18545 1.8125 6.63762 2.95356 4.79485 4.79631C2.95208 6.63908 1.81104 9.18691 1.81104 11.9998C1.81104 17.6262 6.37208 22.1873 11.9984 22.1873C14.8114 22.1873 17.3592 21.0462 19.202 19.2035C21.0447 17.3607 22.1858 14.8128 22.1858 11.9998C22.1858 6.37355 17.6247 1.8125 11.9984 1.8125Z" fill="#ED1D25"/>
</svg>
