<svg width="36" height="36" viewBox="0 0 36 36" fill="none" xmlns="http://www.w3.org/2000/svg">
<path d="M19.3618 22.4572C19.2111 22.3149 19.02 22.2184 18.7884 22.1683C18.6153 22.1294 18.2763 22.1096 17.7715 22.1096H17.2148V26.1735H18.1398C18.4857 26.1735 18.7354 26.1541 18.8889 26.1149C19.0898 26.0647 19.2565 25.9797 19.3891 25.8595C19.5215 25.7396 19.6296 25.5421 19.7133 25.2675C19.7971 24.9927 19.8389 24.618 19.8389 24.1436C19.8389 23.6695 19.7971 23.3052 19.7133 23.0514C19.6296 22.7977 19.5125 22.5994 19.3618 22.4572Z" fill="#ED1D25"/>
<path d="M12.9918 22.1515C12.8439 22.1238 12.5467 22.1096 12.1004 22.1096H11.502V23.8506H12.1799C12.6681 23.8506 12.9945 23.8188 13.1592 23.7545C13.3238 23.6902 13.4529 23.5898 13.5464 23.4532C13.6399 23.3167 13.6866 23.1575 13.6866 22.9761C13.6866 22.7528 13.621 22.5686 13.4899 22.4237C13.3586 22.2787 13.1927 22.1881 12.9918 22.1515Z" fill="#ED1D25"/>
<path d="M24.2838 5.14233H20.2949H18.0287H11.7079C8.08564 5.14233 5.13867 8.0893 5.13867 11.7115V24.2872C5.13867 27.9094 8.08564 30.8566 11.7079 30.8566H24.2838C27.906 30.8566 30.853 27.9094 30.853 24.2872V17.7058V15.4014V11.7115C30.853 8.0893 27.906 5.14233 24.2838 5.14233ZM14.7516 23.9088C14.6148 24.1656 14.4412 24.3672 14.2304 24.5138C14.0198 24.6601 13.8058 24.7572 13.5882 24.8044C13.2924 24.8629 12.8641 24.8924 12.3033 24.8924H11.4956V27.2066H10.2568V21.0713H12.2448C12.998 21.0713 13.489 21.1021 13.7179 21.1634C14.0694 21.2554 14.3637 21.4557 14.601 21.764C14.838 22.0724 14.9566 22.4708 14.9566 22.9589C14.9566 23.3356 14.8882 23.6524 14.7516 23.9088ZM20.9245 25.5035C20.7711 25.9497 20.5521 26.311 20.2675 26.5872C20.0525 26.7965 19.7624 26.9598 19.397 27.0771C19.1235 27.1634 18.7581 27.2066 18.3005 27.2066H15.9694V21.0713H18.2336C18.7442 21.0713 19.1334 21.1105 19.4012 21.1884C19.7611 21.2947 20.0693 21.4831 20.3261 21.7536C20.5827 22.0242 20.7781 22.3556 20.912 22.7477C21.046 23.1394 21.1129 23.6228 21.1129 24.1977C21.1129 24.7026 21.0501 25.1379 20.9245 25.5035ZM26.3777 22.1092H23.4105V23.5616H25.9717V24.5995H23.4105V27.2066H22.1717V21.0713H26.3777V22.1092ZM28.9761 16.5652C28.0836 16.9473 27.1019 17.1595 26.0711 17.1595C21.9914 17.1595 18.6722 13.8402 18.6722 9.76056C18.6722 8.79229 18.8593 7.86723 19.199 7.01921H24.2838C26.871 7.01921 28.9761 9.12418 28.9761 11.7115V16.5652Z" fill="#ED1D25"/>
</svg>
