<svg width="12" height="12" viewBox="0 0 12 12" fill="none" xmlns="http://www.w3.org/2000/svg">
<g clip-path="url(#clip0_336_15320)">
<path d="M6.59882 2.9177L1.03326 2.61182C0.375732 3.57653 0 4.753 0 6.00005C0 6.32946 0.0234833 6.65888 0.0939333 6.98829L6.66926 3.12946C6.62229 3.05888 6.62229 2.98829 6.59882 2.9177Z" fill="white"/>
<path d="M8.07812 3.27053L11.9294 6.91759C11.9764 6.61171 11.9998 6.30581 11.9998 5.97641C11.9998 4.68229 11.6006 3.50581 10.8961 2.51758L8.21904 2.87053C8.21904 3.0117 8.14858 3.15288 8.07812 3.27053Z" fill="white"/>
<path d="M6.8097 3.36475L0.234375 7.69415C0.680557 9.20003 1.71382 10.4706 3.07585 11.2235L6.92712 3.45887C6.88016 3.45887 6.85666 3.4118 6.8097 3.36475Z" fill="white"/>
<path d="M7.20995 3.59998L3.71094 11.5529C4.41543 11.8353 5.19039 12 5.98881 12C6.78725 12 7.53872 11.8353 8.21974 11.5764L7.35084 3.64704C7.30388 3.62352 7.25691 3.62352 7.20995 3.59998Z" fill="white"/>
<path d="M7.65625 3.59998L8.87739 11.2705C10.2394 10.5176 11.2727 9.24702 11.7424 7.71762L7.8676 3.50586C7.79716 3.55291 7.72671 3.57643 7.65625 3.59998Z" fill="white"/>
<path d="M6.90503 2.18823L5.63692 0C3.99309 0.0941175 2.53713 0.847058 1.52734 2L6.62322 2.61176C6.67019 2.44707 6.76411 2.30588 6.90503 2.18823Z" fill="white"/>
<path d="M7.41998 2.02352C7.74875 2.02352 8.03055 2.23528 8.14797 2.51764L10.4259 1.97647C9.41607 0.847058 7.98359 0.0941175 6.38672 0L7.23213 2.04707C7.27909 2.02352 7.34955 2.02352 7.41998 2.02352Z" fill="white"/>
</g>
<defs>
<clipPath id="clip0_336_15320">
<rect width="12" height="12" fill="white"/>
</clipPath>
</defs>
</svg>
