<svg width="20" height="20" viewBox="0 0 20 20" fill="none" xmlns="http://www.w3.org/2000/svg">
<path d="M13.884 9.24662H4.13465V5.38867H13.884C14.4535 5.38867 14.8495 5.48795 15.0482 5.66127C15.2469 5.83462 15.37 6.15613 15.37 6.62578V8.01103C15.37 8.50585 15.2469 8.82735 15.0482 9.0007C14.8495 9.17403 14.4535 9.24813 13.884 9.24813V9.24662ZM14.5529 1.75148H0V18.25H4.13465V12.8824H11.7544L15.37 18.25H20L16.0137 12.8572C17.4833 12.6394 18.1432 12.189 18.6875 11.4467C19.2318 10.7045 19.5047 9.51775 19.5047 7.93398V6.6969C19.5047 5.75758 19.4053 5.01533 19.2318 4.44643C19.0583 3.8775 18.7617 3.38267 18.3405 2.9382C17.8956 2.51745 17.4003 2.22113 16.8056 2.0226C16.2109 1.84928 15.4679 1.75 14.5529 1.75V1.75148Z" fill="white"/>
</svg>
