<svg width="24" height="24" viewBox="0 0 24 24" fill="none" xmlns="http://www.w3.org/2000/svg">
<path fill-rule="evenodd" clip-rule="evenodd" d="M13.1471 1.77825C15.114 2.82834 17.1845 3.67169 19.3253 4.2948C19.7812 4.43904 20.1774 4.72835 20.4536 5.11866C20.7299 5.50896 20.8709 5.97886 20.8553 6.45676L20.6213 13.6552C20.0765 17.3965 16.2395 20.4475 13.9996 21.9397C13.4071 22.3359 12.7103 22.5473 11.9976 22.5473C11.2849 22.5473 10.5881 22.3359 9.99564 21.9397C7.75574 20.4475 3.91877 17.3965 3.38109 13.7381L3.13982 6.45602C3.12438 5.97813 3.2656 5.50829 3.54198 5.11811C3.81835 4.72794 4.21472 4.4388 4.67066 4.2948C6.8112 3.67155 8.88141 2.8282 10.8481 1.77825C11.1937 1.56537 11.5917 1.45264 11.9976 1.45264C12.4035 1.45264 12.8015 1.56537 13.1471 1.77825ZM13.1886 20.7223C15.2263 19.3643 18.7121 16.6246 19.1675 13.5246L19.3946 6.40894C19.4 6.25044 19.3535 6.09452 19.2623 5.96477C19.171 5.83504 19.0401 5.73856 18.8891 5.68995C16.6331 5.03193 14.4524 4.13854 12.3833 3.02454C12.2681 2.951 12.1342 2.91193 11.9976 2.91193C11.861 2.91193 11.7272 2.951 11.612 3.02454C9.54309 4.13859 7.36283 5.03216 5.10714 5.69053C4.95604 5.73899 4.82486 5.83541 4.73349 5.96517C4.64214 6.09492 4.59559 6.25093 4.60091 6.40953L4.83487 13.608C5.2832 16.624 8.76894 19.3643 10.8066 20.7223C11.159 20.9583 11.5735 21.0843 11.9976 21.0843C12.4217 21.0843 12.8363 20.9583 13.1886 20.7223ZM12.4824 6.88915C13.4345 7.41419 14.4368 7.83587 15.4731 8.14743C15.6937 8.21954 15.8855 8.3642 16.0193 8.55935C16.153 8.7545 16.2212 8.98945 16.2137 9.22841L16.1004 12.8276C15.8367 14.6983 13.9793 16.2238 12.895 16.9699C12.6083 17.168 12.271 17.2736 11.926 17.2736C11.581 17.2736 11.2437 17.168 10.9569 16.9699C9.87266 16.2238 8.01527 14.6983 7.755 12.8691L7.6382 9.22803C7.63073 8.98909 7.6991 8.75417 7.83288 8.55908C7.96666 8.36398 8.15852 8.21943 8.37924 8.14743C9.4154 7.8358 10.4176 7.41412 11.3696 6.88915C11.5368 6.7827 11.7295 6.72634 11.926 6.72634C12.1224 6.72634 12.3151 6.7827 12.4824 6.88915Z" fill="#215A97"/>
</svg>
