<svg width="32" height="32" viewBox="0 0 32 32" fill="none" xmlns="http://www.w3.org/2000/svg">
<path d="M14.0852 4.87623C14.6998 3.63085 15.0071 3.00815 15.4243 2.80921C15.7873 2.63613 16.2091 2.63613 16.5721 2.80921C16.9893 3.00815 17.2966 3.63085 17.9112 4.87623L20.0082 9.12512C20.1898 9.49312 20.2806 9.67712 20.4134 9.81994C20.5309 9.94639 20.6719 10.0488 20.8284 10.1215C21.0053 10.2036 21.2083 10.2331 21.6145 10.2921L26.3034 10.9735C27.6777 11.1732 28.3649 11.273 28.6831 11.6084C28.9598 11.9001 29.0902 12.3012 29.0377 12.6999C28.9775 13.1582 28.4802 13.6429 27.4857 14.6123L24.0928 17.9196C23.7989 18.206 23.652 18.3493 23.5572 18.5196C23.4732 18.6705 23.4194 18.8362 23.3986 19.0076C23.3752 19.2012 23.4099 19.4034 23.4792 19.8079L24.2802 24.4779C24.515 25.8467 24.6323 26.5311 24.4117 26.9373C24.2198 27.2907 23.8786 27.5385 23.4832 27.6119C23.0287 27.6962 22.4141 27.373 21.1848 26.7268L16.9909 24.5219C16.6277 24.3309 16.4461 24.2355 16.2547 24.1979C16.0853 24.1647 15.9111 24.1647 15.7417 24.1979C15.5503 24.2355 15.3687 24.3309 15.0055 24.5219L10.8116 26.7268C9.58229 27.373 8.96766 27.6962 8.51319 27.6119C8.11777 27.5385 7.77659 27.2907 7.58465 26.9373C7.36405 26.5311 7.48143 25.8467 7.7162 24.4779L8.51717 19.8079C8.58654 19.4034 8.62123 19.2012 8.59778 19.0076C8.57702 18.8362 8.52317 18.6705 8.43923 18.5196C8.34443 18.3493 8.19749 18.206 7.90363 17.9196L4.51069 14.6123C3.51619 13.6429 3.01894 13.1582 2.95866 12.6999C2.90622 12.3012 3.03654 11.9001 3.31333 11.6084C3.63146 11.273 4.31864 11.1732 5.69301 10.9735L10.3819 10.2921C10.788 10.2331 10.9911 10.2036 11.168 10.1215C11.3245 10.0488 11.4655 9.94639 11.583 9.81994C11.7158 9.67712 11.8066 9.49312 11.9882 9.12512L14.0852 4.87623Z" fill="white"/>
</svg>
