<svg width="12" height="12" viewBox="0 0 12 12" fill="none" xmlns="http://www.w3.org/2000/svg">
<path d="M5.28218 1.82857C5.51267 1.36155 5.62791 1.12804 5.78437 1.05344C5.92049 0.988534 6.07864 0.988534 6.21477 1.05344C6.37122 1.12804 6.48647 1.36155 6.71696 1.82857L7.50331 3.42191C7.57142 3.55991 7.60547 3.62891 7.65525 3.68246C7.69933 3.72988 7.75219 3.76829 7.81091 3.79555C7.87723 3.82635 7.95337 3.83741 8.10566 3.85954L9.86401 4.11504C10.3794 4.18993 10.6371 4.22738 10.7564 4.35312C10.8602 4.46253 10.9091 4.61294 10.8894 4.76246C10.8668 4.93431 10.6803 5.11607 10.3074 5.4796L9.03503 6.71984C8.92483 6.82725 8.86973 6.88096 8.83418 6.94486C8.8027 7.00143 8.78251 7.06357 8.77472 7.12784C8.76593 7.20043 8.77894 7.27626 8.80495 7.42794L9.10531 9.17918C9.19335 9.69249 9.23737 9.94914 9.15465 10.1015C9.08267 10.234 8.95472 10.3269 8.80645 10.3544C8.63602 10.386 8.40553 10.2649 7.94455 10.0225L6.37184 9.1957C6.23563 9.12409 6.16752 9.08828 6.09577 9.07421C6.03224 9.06176 5.9669 9.06176 5.90337 9.07421C5.83161 9.08828 5.76351 9.12409 5.62729 9.1957L4.05458 10.0225C3.5936 10.2649 3.36312 10.386 3.19269 10.3544C3.04441 10.3269 2.91646 10.234 2.84449 10.1015C2.76176 9.94914 2.80578 9.69249 2.89382 9.17918L3.19418 7.42794C3.2202 7.27626 3.2332 7.20043 3.22441 7.12784C3.21663 7.06357 3.19643 7.00143 3.16496 6.94486C3.1294 6.88096 3.0743 6.82725 2.9641 6.71984L1.69175 5.4796C1.31881 5.11607 1.13235 4.93431 1.10974 4.76246C1.09008 4.61294 1.13895 4.46253 1.24274 4.35312C1.36204 4.22738 1.61974 4.18993 2.13512 4.11504L3.89347 3.85954C4.04576 3.83741 4.12191 3.82635 4.18823 3.79555C4.24694 3.76829 4.29981 3.72988 4.34388 3.68246C4.39366 3.62891 4.42771 3.55991 4.49582 3.42191L5.28218 1.82857Z" fill="#215A97"/>
</svg>
