<svg width="12" height="12" viewBox="0 0 12 12" fill="none" xmlns="http://www.w3.org/2000/svg">
<path fill-rule="evenodd" clip-rule="evenodd" d="M2.5686 1.5H6.152C6.46107 1.5 6.61561 1.5 6.76162 1.53204C6.92071 1.56694 7.07235 1.62975 7.20951 1.71756C7.33541 1.79815 7.44469 1.90743 7.66324 2.12597L10.5599 5.02264C11.06 5.52275 11.3101 5.7728 11.4148 6.05663C11.5284 6.36465 11.5284 6.7031 11.4148 7.01112C11.3101 7.29494 11.06 7.545 10.5599 8.04511L8.04511 10.5599C7.545 11.06 7.29494 11.3101 7.01112 11.4148C6.7031 11.5284 6.36465 11.5284 6.05663 11.4148C5.77281 11.3101 5.52275 11.06 5.02265 10.5599L2.12597 7.66324C1.90743 7.44469 1.79815 7.33541 1.71756 7.20951C1.62975 7.07235 1.56694 6.92071 1.53204 6.76162C1.5 6.61561 1.5 6.46108 1.5 6.152V2.5686C1.5 2.21497 1.5 2.03816 1.56333 1.90079C1.63205 1.75171 1.75171 1.63205 1.90079 1.56333C2.03816 1.5 2.21497 1.5 2.5686 1.5ZM4.48749 5.17686C4.86825 5.17686 5.17692 4.8682 5.17692 4.48744C5.17692 4.10668 4.86825 3.79802 4.48749 3.79802C4.10674 3.79802 3.79807 4.10668 3.79807 4.48744C3.79807 4.8682 4.10674 5.17686 4.48749 5.17686Z" fill="#215A97"/>
</svg>
