<svg width="12" height="12" viewBox="0 0 12 12" fill="none" xmlns="http://www.w3.org/2000/svg">
<path d="M9.225 4.8749C9 4.6249 8.7 4.4999 8.375 4.4999H6.075C6.025 4.4999 6 4.4749 5.975 4.4499C5.95 4.3999 5.95 4.3499 5.975 4.2999C6.175 3.8499 6.3 3.4499 6.4 2.9499C6.475 2.6749 6.5 2.4999 6.5 2.3249C6.5 1.5999 5.95 1.3249 5.675 1.2749C5.625 1.2749 5.575 1.2749 5.55 1.3249C5.525 1.3499 3.95 3.6249 3.325 4.2499C2.8 4.7499 2.5 5.3749 2.5 5.9999V7.6499C2.5 9.0749 3.675 10.2499 5.125 10.2499H7.45C8.275 10.2499 8.95 9.6499 9.075 8.8249L9.5 5.7749C9.55 5.4499 9.45 5.1249 9.225 4.8749Z" fill="#215A97"/>
</svg>
