<svg width="20" height="20" viewBox="0 0 20 20" fill="none" xmlns="http://www.w3.org/2000/svg">
<g clip-path="url(#clip0_450_11842)">
<path fill-rule="evenodd" clip-rule="evenodd" d="M9.99935 1.04175C5.0518 1.04175 1.04102 5.05253 1.04102 10.0001C1.04102 14.9476 5.0518 18.9584 9.99935 18.9584C14.9469 18.9584 18.9577 14.9476 18.9577 10.0001C18.9577 5.05253 14.9469 1.04175 9.99935 1.04175ZM10.8327 5.83341C10.8327 5.37318 10.4596 5.00008 9.99935 5.00008C9.53911 5.00008 9.16601 5.37318 9.16601 5.83341V9.16675H5.83268C5.37244 9.16675 4.99935 9.53984 4.99935 10.0001C4.99935 10.4603 5.37244 10.8334 5.83268 10.8334H9.16601V14.1667C9.16601 14.627 9.53911 15.0001 9.99935 15.0001C10.4596 15.0001 10.8327 14.627 10.8327 14.1667V10.8334H14.166C14.6263 10.8334 14.9993 10.4603 14.9993 10.0001C14.9993 9.53984 14.6263 9.16675 14.166 9.16675H10.8327V5.83341Z" fill="#ED1D25"/>
</g>
<defs>
<clipPath id="clip0_450_11842">
<rect width="20" height="20" fill="white"/>
</clipPath>
</defs>
</svg>
