<svg width="20" height="20" viewBox="0 0 20 20" fill="none" xmlns="http://www.w3.org/2000/svg">
<g clip-path="url(#clip0_508_11962)">
<path fill-rule="evenodd" clip-rule="evenodd" d="M0.243899 13.4268C0.105135 12.4421 0 11.2753 0 10C0 8.72473 0.105135 7.55788 0.243899 6.5732C0.434874 5.21801 0.530361 4.54042 1.2294 3.84848C1.92845 3.15654 2.6412 3.06351 4.06669 2.87746C5.6013 2.67716 7.62886 2.5 10 2.5C12.3711 2.5 14.3987 2.67716 15.9333 2.87746C17.3588 3.06351 18.0716 3.15654 18.7706 3.84848C19.4696 4.54042 19.5651 5.21801 19.7561 6.5732C19.8949 7.55788 20 8.72473 20 10C20 11.2753 19.8949 12.4421 19.7561 13.4268C19.5651 14.782 19.4696 15.4596 18.7706 16.1515C18.0716 16.8435 17.3588 16.9365 15.9333 17.1225C14.3987 17.3228 12.3711 17.5 10 17.5C7.62886 17.5 5.6013 17.3228 4.06669 17.1225C2.6412 16.9365 1.92845 16.8435 1.2294 16.1515C0.530361 15.4596 0.434874 14.782 0.243899 13.4268ZM8.51606 7.29194L11.994 9.43223C12.2994 9.62012 12.452 9.71407 12.5042 9.83481C12.5497 9.94023 12.5497 10.0598 12.5042 10.1652C12.452 10.2859 12.2994 10.3799 11.994 10.5678L8.51606 12.7081C8.18408 12.9124 8.01809 13.0145 7.88126 13.0028C7.76197 12.9927 7.65283 12.9317 7.58165 12.8354C7.5 12.725 7.5 12.5301 7.5 12.1403V7.85971C7.5 7.4699 7.5 7.27499 7.58165 7.16458C7.65283 7.06832 7.76197 7.00733 7.88126 6.99716C8.01809 6.98549 8.18408 7.08764 8.51606 7.29194Z" fill="white"/>
</g>
<defs>
<clipPath id="clip0_508_11962">
<rect width="20" height="20" fill="white"/>
</clipPath>
</defs>
</svg>
