<svg width="256" height="54" viewBox="0 0 256 54" fill="none" xmlns="http://www.w3.org/2000/svg">
<g clip-path="url(#clip0_508_11899)">
<path d="M127.759 54C85.4136 54 43.0682 54 0.722824 54C0.120471 54 0 53.88 0 53.28C0 35.7 0 18.18 0 0.6C0 0.06 0.120471 0 0.602353 0C85.3534 0 170.044 0 254.795 0C255.337 0 255.458 0.12 255.458 0.66C255.458 18.24 255.458 35.76 255.458 53.34C255.458 53.88 255.337 54 254.795 54C212.45 54 170.104 54 127.759 54Z" fill="#F4F4F4"/>
<path d="M129.204 16.2602C131.794 15.8402 134.143 15.4802 136.733 15.0602C131.975 19.4402 127.337 23.7602 122.578 28.1402C125.168 28.1402 127.577 28.1402 130.047 28.1402C130.047 28.2002 130.047 28.2602 130.107 28.3202C121.976 35.5202 113.844 42.7802 105.652 50.0402C105.592 49.7402 105.712 49.6202 105.833 49.4402C106.555 48.5402 107.218 47.5802 107.941 46.7402C108.242 46.3802 108.122 46.1402 107.82 45.9002C103.423 42.0602 100.592 37.2602 99.5079 31.5002C97.8815 22.8602 99.9897 15.1802 106.013 8.70017C111.555 2.76015 118.602 0.0601539 126.734 0.540154C131.071 0.780153 135.167 1.98015 138.781 4.44015C139.323 4.80015 139.323 4.98015 138.902 5.46015C135.89 8.76017 132.878 12.1202 129.927 15.4202C129.625 15.7202 129.445 15.9602 129.204 16.2602Z" fill="#ED1D25"/>
<path d="M41.6836 26.5202C41.6836 23.4602 41.6836 20.4602 41.6836 17.4002C41.6836 16.2002 42.1052 15.7202 43.3099 15.7202C47.7071 15.7202 52.0441 15.7202 56.4412 15.7202C57.9471 15.7202 58.9711 16.6802 59.0314 18.0002C59.0314 19.3802 58.0074 20.3402 56.4412 20.3402C53.309 20.3402 50.1768 20.3402 47.0445 20.3402C46.5627 20.3402 46.3819 20.4002 46.3819 20.9402C46.4422 21.9602 46.4422 22.9202 46.3819 23.9402C46.3819 24.4202 46.5627 24.5402 46.9843 24.5402C49.3937 24.5402 51.8031 24.5402 54.2125 24.5402C55.5377 24.5402 56.4412 25.4402 56.5617 26.7002C56.6822 27.8402 55.8991 28.9202 54.7547 29.2202C54.5137 29.2802 54.2125 29.2802 53.9716 29.2802C51.6224 29.2802 49.2732 29.2802 46.9843 29.2802C46.5024 29.2802 46.3819 29.4002 46.3819 29.8802C46.4422 30.9002 46.4422 31.8602 46.3819 32.8802C46.3819 33.3602 46.5627 33.4802 46.9843 33.4802C50.1165 33.4802 53.2488 33.4802 56.381 33.4802C57.9471 33.4802 58.9711 34.4402 59.0314 35.8202C59.0314 37.2602 58.0074 38.2202 56.381 38.2202C52.3452 38.2202 48.3697 38.2202 44.3339 38.2202C42.6474 38.2202 41.7438 37.3202 41.7438 35.5802C41.6836 32.5202 41.6836 29.5202 41.6836 26.5202Z" fill="#111111"/>
<path d="M111.615 48.8998C112.82 47.8198 114.085 46.7398 115.229 45.6598C115.531 45.4198 115.711 45.5398 116.012 45.6598C118.964 47.0398 122.096 47.6398 125.349 47.6398C134.746 47.5798 143.48 40.5598 145.467 31.4398C146.732 25.4398 145.708 19.7998 142.155 14.7598C142.094 14.6398 141.914 14.5798 141.974 14.3998C143.962 14.2798 145.166 13.4998 145.769 11.2798C152.756 20.0998 153.358 34.4398 144.142 44.3398C134.685 54.4798 120.349 54.4798 111.615 48.8998Z" fill="#111111"/>
<path d="M171.008 26.9398C171.008 29.8198 171.008 32.6998 171.008 35.6398C171.008 37.1398 170.044 38.1598 168.719 38.2198C167.334 38.2198 166.31 37.1998 166.31 35.6398C166.31 30.8398 166.31 25.9798 166.31 21.1798C166.31 20.5798 166.189 20.3998 165.587 20.4598C163.479 20.5198 161.371 20.5198 159.262 20.4598C158.66 20.4598 158.419 20.5798 158.419 21.2398C158.479 26.0398 158.419 30.8398 158.479 35.6398C158.479 37.1398 157.395 38.2198 156.07 38.2198C154.745 38.2198 153.721 37.1398 153.721 35.6998C153.721 29.9398 153.721 24.1198 153.721 18.3598C153.721 16.7398 154.684 15.8398 156.311 15.8398C160.407 15.8398 164.443 15.8398 168.539 15.8398C170.225 15.8398 171.129 16.7398 171.129 18.4198C171.008 21.1798 171.008 24.0598 171.008 26.9398Z" fill="#111111"/>
<path d="M13.8549 29.2802C11.7467 29.2802 9.75889 29.2802 7.71089 29.2802C6.14477 29.2802 5.12077 28.2002 5.181 26.7602C5.24124 25.5002 6.26524 24.6002 7.77112 24.6002C9.51794 24.6002 11.2648 24.6002 13.0718 24.6002C13.3128 24.6002 13.5537 24.6002 13.9151 24.6002C12.9514 22.4402 11.4455 21.1202 9.21677 20.5802C7.65065 20.2202 6.14477 20.4002 4.75936 21.2402C4.21724 21.5402 3.67512 21.9002 3.07277 22.0202C1.98853 22.2002 0.964532 21.7202 0.482651 20.8202C0.000769019 19.9202 0.121239 18.9002 0.904297 18.1202C1.98853 16.9802 3.43418 16.5002 4.87983 16.0802C11.0841 14.4602 17.469 18.3602 18.7942 24.4802C20.1194 30.8402 16.0234 36.9602 9.63842 38.0402C6.62665 38.5202 3.85583 37.9802 1.32594 36.1802C0.482651 35.5802 0.0610042 34.8002 0.301945 33.7202C0.663356 32.1602 2.16924 31.4402 3.61489 32.1002C4.63889 32.5802 5.54241 33.1802 6.62665 33.3602C9.69865 33.9002 12.5899 32.2802 13.8549 29.2802Z" fill="#111111"/>
<path d="M38.6101 27.0001C38.6101 29.8801 38.6101 32.7601 38.6101 35.7001C38.6101 37.2001 37.6463 38.2201 36.2609 38.2201C34.9358 38.2201 33.9118 37.2001 33.9118 35.7601C33.9118 33.8401 33.9118 31.8601 33.9118 29.9401C33.9118 29.5201 33.8515 29.3401 33.3696 29.3401C31.1409 29.4001 28.9122 29.3401 26.6835 29.3401C26.2016 29.3401 26.0812 29.4601 26.0812 29.9401C26.0812 31.8601 26.0812 33.7801 26.0812 35.7001C26.0812 37.2001 25.0572 38.2801 23.6718 38.2801C22.2863 38.2801 21.3828 37.2001 21.3828 35.7001C21.3828 29.9401 21.3828 24.1801 21.3828 18.4201C21.3828 16.8601 22.3466 15.8401 23.732 15.8401C25.1174 15.8401 26.0812 16.9201 26.0812 18.4201C26.0812 20.2801 26.0812 22.2001 26.0812 24.0601C26.0812 24.4801 26.1414 24.6601 26.6233 24.6601C28.852 24.6001 31.0807 24.6601 33.3094 24.6601C33.7913 24.6601 33.9118 24.5401 33.9118 24.0601C33.9118 22.1401 33.9118 20.1601 33.9118 18.2401C33.9118 17.2201 34.3334 16.4401 35.2972 16.0201C36.2007 15.6601 37.044 15.7201 37.827 16.3201C38.4294 16.8001 38.6703 17.4601 38.6703 18.1801C38.5499 21.1201 38.6101 24.0601 38.6101 27.0001Z" fill="#111111"/>
<path d="M206.245 15.7202C207.45 15.7202 208.172 16.1402 208.594 16.9802C211.425 22.8602 214.437 28.6802 217.147 34.6202C217.931 36.3002 217.208 37.7402 215.521 38.1002C214.497 38.2802 213.533 37.8002 212.991 36.7802C212.57 35.8802 212.148 35.0402 211.726 34.1402C211.606 33.8402 211.425 33.7202 211.064 33.7202C208.052 33.7202 204.98 33.7202 201.968 33.7202C201.607 33.7202 201.486 33.8402 201.306 34.1402C200.884 35.0402 200.462 35.9402 199.98 36.8402C199.499 37.8002 198.535 38.2802 197.631 38.1602C196.607 38.0402 195.764 37.3202 195.583 36.3002C195.463 35.7002 195.644 35.1602 195.884 34.6202C196.969 32.1002 198.173 29.6402 199.378 27.1802C201.004 23.8202 202.691 20.4602 204.317 17.1002C204.739 16.2002 205.462 15.7802 206.245 15.7202Z" fill="#111111"/>
<path d="M61.3197 26.4598C61.3197 23.4598 61.3197 20.4598 61.3197 17.5198C61.3197 16.1998 61.7414 15.7798 63.0666 15.7798C65.9579 15.7798 68.7889 15.7798 71.6802 15.7798C75.5353 15.7798 78.547 18.7798 78.547 22.5598C78.547 26.2798 75.475 29.2798 71.6802 29.3398C70.0539 29.3398 68.4275 29.3398 66.7409 29.3398C66.1988 29.3398 66.0783 29.3998 66.0783 29.9998C66.1386 31.9198 66.0783 33.8998 66.0783 35.8198C66.0783 37.1398 65.235 38.0998 63.9099 38.2198C62.7051 38.3398 61.5607 37.4398 61.38 36.1798C61.3197 35.6398 61.3197 35.0398 61.3197 34.4398C61.2595 31.7398 61.3197 29.0998 61.3197 26.4598Z" fill="#111111"/>
<path d="M227.81 15.7202C230.279 15.7202 232.629 16.2602 234.677 17.8802C236.243 19.1402 235.881 21.2402 234.074 21.9002C233.532 22.0802 232.93 22.0802 232.388 21.8402C231.906 21.6002 231.424 21.3602 230.882 21.1202C228.472 19.9202 226.123 20.2202 224.075 21.8402C221.907 23.5202 221.063 25.8002 221.726 28.4402C222.328 31.0802 224.075 32.7002 226.726 33.3002C228.292 33.6602 229.798 33.4202 231.243 32.6402C231.785 32.3402 232.327 31.9802 232.93 31.8602C233.954 31.6802 234.918 32.2202 235.339 33.1202C235.821 34.0202 235.64 35.1002 234.857 35.8202C233.653 36.9602 232.087 37.5602 230.46 37.8602C223.955 39.1802 218.052 35.1602 216.847 28.6802C215.703 22.5002 220.582 16.2602 226.846 15.7802C227.207 15.7802 227.509 15.7202 227.81 15.7202Z" fill="#111111"/>
<path d="M183.357 23.4602C182.694 24.8402 182.032 26.1602 181.429 27.4202C179.923 30.4802 178.478 33.5402 176.972 36.6002C176.249 38.1002 174.623 38.5202 173.358 37.6202C172.454 36.9602 172.213 36.0002 172.635 34.9802C173.478 32.8202 174.562 30.7202 175.586 28.6202C177.454 24.7802 179.321 20.9402 181.188 17.1002C181.61 16.2002 182.333 15.7202 183.357 15.6602C184.32 15.6602 185.104 16.0802 185.525 16.9202C188.356 22.8002 191.368 28.5602 194.018 34.5002C194.44 35.4602 194.56 36.3602 193.838 37.2002C192.693 38.5802 190.705 38.3402 189.862 36.6602C188.778 34.4402 187.694 32.2202 186.609 30.0602C185.585 27.9602 184.501 25.7402 183.357 23.4602Z" fill="#111111"/>
<path d="M243.833 28.3802C243.833 25.9202 243.833 23.4602 243.833 21.0002C243.833 20.5202 243.712 20.4002 243.231 20.4002C242.026 20.4602 240.761 20.4002 239.556 20.4002C238.171 20.4002 237.207 19.4402 237.207 18.1202C237.207 16.7402 238.111 15.7202 239.496 15.7202C244.014 15.7202 248.471 15.7202 252.989 15.7202C254.314 15.7202 255.278 16.8002 255.278 18.0602C255.278 19.3202 254.254 20.3402 252.928 20.3402C251.724 20.3402 250.519 20.4002 249.314 20.3402C248.712 20.3402 248.531 20.4602 248.531 21.0602C248.592 25.8002 248.531 30.6002 248.531 35.3402C248.531 36.7802 247.989 37.6802 246.905 37.9802C245.339 38.4602 243.833 37.4402 243.833 35.7602C243.833 33.3602 243.833 30.8402 243.833 28.3802Z" fill="#111111"/>
<path d="M80.5346 26.5202C80.5346 23.5202 80.5346 20.5202 80.5346 17.4602C80.5346 16.1402 80.9562 15.7202 82.2814 15.7202C86.6786 15.7202 91.0758 15.7202 95.4729 15.7202C96.6776 15.7202 97.5812 16.4402 97.8221 17.4602C98.0631 18.5402 97.5209 19.6802 96.5572 20.1602C96.1355 20.3402 95.7139 20.4002 95.2922 20.4002C92.16 20.4002 89.088 20.4002 85.9558 20.4002C85.4136 20.4002 85.2329 20.5202 85.2329 21.1202C85.2329 25.9802 85.2329 30.7802 85.2329 35.6402C85.2329 37.4402 83.7873 38.6402 82.1609 38.1002C81.1369 37.7402 80.5346 36.9002 80.5346 35.5802C80.4743 32.5202 80.5346 29.5202 80.5346 26.5202Z" fill="#111111"/>
<path d="M142.396 8.27979C143.842 8.33979 144.866 9.41979 144.806 10.8598C144.746 12.2398 143.661 13.3198 142.216 13.2598C140.77 13.1998 139.746 12.1198 139.746 10.7398C139.746 9.29978 140.891 8.27979 142.396 8.27979Z" fill="#111111"/>
<path d="M192.271 46.6202C192.632 46.6202 192.693 46.4402 192.813 46.3202C193.717 45.4202 195.102 45.1802 196.186 45.7202C197.271 46.2002 197.813 47.4002 197.632 48.8402C197.511 49.9802 196.608 51.0002 195.463 51.2402C193.596 51.6602 192.03 50.6402 191.729 48.7202C191.548 47.4602 191.608 46.2602 192.03 45.0602C192.512 43.6802 193.596 43.0202 194.982 42.7802C195.524 42.7202 196.066 42.7202 196.487 42.2402C196.668 42.0602 196.789 42.2402 196.849 42.3602C196.969 42.5402 197.03 42.6602 196.849 42.8402C196.608 43.0802 196.247 43.2602 195.885 43.3202C195.584 43.3802 195.223 43.4402 194.861 43.5002C193.536 43.7402 192.753 44.5202 192.452 45.8402C192.512 46.0802 192.512 46.3802 192.271 46.6202Z" fill="#111111"/>
<path d="M248.832 51.5398C248.892 51.0598 248.591 50.4598 249.495 50.5198C249.736 50.5198 249.796 50.1598 249.916 49.9198C250.398 48.7198 250.519 47.3998 250.519 46.1398C250.519 45.5998 250.639 45.4198 251.241 45.4798C252.085 45.5398 252.988 45.4798 253.832 45.4798C254.193 45.4798 254.313 45.5998 254.313 45.9598C254.313 47.2798 254.313 48.6598 254.313 49.9798C254.313 50.3998 254.313 50.6998 254.856 50.5798C255.217 50.5198 255.337 50.6398 255.277 50.9998C255.277 51.4798 255.277 51.8998 255.277 52.3798C255.277 52.6198 255.217 52.7398 254.976 52.7398C254.735 52.7398 254.554 52.6798 254.554 52.3798C254.554 52.0198 254.735 51.5398 254.494 51.3598C254.193 51.1798 253.711 51.2998 253.289 51.2998C252.326 51.2998 251.422 51.2998 250.458 51.2998C249.495 51.2998 249.495 51.2998 249.495 52.2598C249.495 52.4998 249.615 52.7398 249.193 52.7398C248.952 52.7398 248.772 52.6798 248.832 52.3798C248.832 52.0798 248.832 51.8398 248.832 51.5398Z" fill="#111111"/>
<path d="M179.682 51.0002C179.682 51.8402 179.682 52.5602 179.682 53.3402C179.682 53.6402 179.682 53.8802 179.26 53.8202C178.839 53.8202 178.959 53.5202 178.959 53.3402C178.959 50.8802 178.959 48.4802 178.959 46.0202C178.959 45.7802 178.778 45.4802 179.26 45.4802C179.742 45.4802 179.622 45.7802 179.682 46.1402C180.525 45.4802 181.429 45.2402 182.392 45.4202C182.934 45.5402 183.356 45.7802 183.778 46.2002C184.621 47.1602 184.742 49.0202 183.958 50.1602C183.175 51.3602 181.67 51.6602 179.682 51.0002Z" fill="#111111"/>
<path d="M239.858 48.2401C240.821 48.7201 241.122 49.0801 241.002 49.8601C240.882 50.6401 240.339 51.0001 239.677 51.1801C238.713 51.4201 237.749 51.2401 236.786 51.3001C236.484 51.3001 236.484 51.1201 236.484 50.9401C236.484 49.2601 236.484 47.5201 236.484 45.8401C236.484 45.5401 236.605 45.4801 236.846 45.4801C237.689 45.4801 238.532 45.3601 239.376 45.5401C240.038 45.6601 240.58 45.9001 240.761 46.6201C240.882 47.3401 240.58 47.8801 239.858 48.2401Z" fill="#111111"/>
<path d="M218.896 46.4999C217.691 47.9999 216.607 49.3799 215.523 50.6999C215.402 50.8199 215.282 50.9999 215.161 51.1199C214.98 51.2999 214.74 51.2399 214.559 51.1799C214.318 51.1199 214.438 50.8799 214.438 50.7599C214.438 49.1399 214.438 47.4599 214.438 45.8399C214.438 45.5999 214.378 45.4199 214.739 45.4199C215.041 45.4199 215.161 45.5399 215.161 45.8399C215.161 47.2199 215.161 48.5999 215.161 50.1599C216.366 48.6599 217.45 47.2799 218.534 45.9599C218.655 45.8399 218.775 45.6599 218.896 45.5399C219.076 45.3599 219.317 45.4199 219.498 45.4799C219.739 45.5399 219.679 45.7199 219.679 45.8999C219.679 47.5199 219.679 49.1999 219.679 50.8199C219.679 51.0599 219.679 51.2999 219.317 51.2399C218.956 51.2399 218.956 51.0599 218.956 50.7599C218.896 49.4399 218.896 48.1199 218.896 46.4999Z" fill="#111111"/>
<path d="M245.339 45.3599C247.146 45.3599 248.351 46.6199 248.351 48.3599C248.351 50.0999 247.086 51.3599 245.279 51.3599C243.472 51.3599 242.207 50.0399 242.207 48.2999C242.267 46.4999 243.532 45.3599 245.339 45.3599Z" fill="#111111"/>
<path d="M233.833 48.1202C233.953 46.2602 232.99 45.5402 231.303 46.2002C231.062 46.2602 230.821 46.6202 230.641 46.1402C230.52 45.7202 230.881 45.7202 231.122 45.6002C231.725 45.3002 232.448 45.3002 233.11 45.4202C233.893 45.5402 234.375 46.0202 234.496 46.7402C234.737 48.1202 234.556 49.5602 234.616 50.9402C234.616 51.3002 234.435 51.2402 234.194 51.2402C233.652 51.2402 234.014 50.8202 233.833 50.5802C233.17 51.1202 232.448 51.4202 231.544 51.3002C230.821 51.1802 230.279 50.7002 230.159 50.0402C229.978 49.2002 230.279 48.4802 231.002 48.1202C231.905 47.5802 232.869 47.7002 233.833 48.1202Z" fill="#111111"/>
<path d="M185.104 45.5401C185.766 45.3001 186.007 45.6001 186.248 46.0801C186.911 47.4601 187.573 48.8401 188.236 50.1601C188.236 50.1601 188.296 50.1601 188.356 50.2201C188.898 48.8401 189.38 47.5201 189.922 46.1401C189.983 45.9601 190.043 45.8401 190.103 45.6601C190.224 45.3601 190.525 45.4201 190.766 45.4801C191.067 45.5401 190.886 45.7801 190.826 45.9601C189.983 47.9401 189.2 49.9801 188.356 51.9601C188.176 52.4401 187.935 52.9201 187.573 53.3401C187.091 53.8801 186.368 54.0601 185.766 53.7001C185.646 53.6401 185.465 53.5801 185.585 53.3401C185.706 53.1601 185.706 52.9801 186.007 53.1001C186.609 53.3401 187.091 53.1001 187.332 52.6201C187.694 52.0201 188.176 51.4801 187.754 50.7001C186.73 48.9601 185.947 47.2201 185.104 45.5401Z" fill="#111111"/>
<path d="M199.259 48.3599C199.259 47.5799 199.259 46.7999 199.259 46.0199C199.259 45.7799 199.138 45.4199 199.62 45.4199C200.162 45.4199 199.921 45.7799 199.982 46.0199C199.982 46.4999 199.982 46.9799 199.982 47.4599C199.982 47.8199 200.042 47.9399 200.463 47.9399C201.427 47.8799 202.331 47.9399 203.294 47.9399C203.716 47.9399 203.776 47.8199 203.776 47.4599C203.776 46.9199 203.776 46.3799 203.776 45.8399C203.776 45.5999 203.837 45.4199 204.138 45.4799C204.439 45.4799 204.499 45.5999 204.499 45.8999C204.499 47.5799 204.499 49.3199 204.499 50.9999C204.499 51.2999 204.379 51.3599 204.078 51.3599C203.776 51.3599 203.716 51.1799 203.716 50.9399C203.716 50.3399 203.716 49.7999 203.716 49.1999C203.716 48.8399 203.656 48.6599 203.234 48.7199C202.27 48.7199 201.307 48.7199 200.343 48.7199C200.042 48.7199 199.921 48.8399 199.921 49.1399C199.921 49.6799 199.921 50.2199 199.921 50.7599C199.921 50.9999 200.042 51.3599 199.56 51.2999C199.018 51.2999 199.259 50.9399 199.198 50.6999C199.198 49.9199 199.259 49.1399 199.259 48.3599Z" fill="#111111"/>
<path d="M206.366 48.2999C206.366 47.5199 206.366 46.7399 206.366 45.9599C206.366 45.6599 206.306 45.4199 206.728 45.4199C207.089 45.4199 207.089 45.6599 207.089 45.8999C207.089 46.3799 206.908 46.9799 207.21 47.2799C207.45 47.5199 208.053 47.3399 208.535 47.3999C209.679 47.4599 210.342 48.0599 210.402 49.0799C210.462 50.2799 209.98 50.9399 208.776 51.1799C208.113 51.2999 207.45 51.2399 206.788 51.2999C206.426 51.2999 206.426 51.1199 206.426 50.8799C206.366 49.9799 206.366 49.1399 206.366 48.2999Z" fill="#111111"/>
<path d="M227.749 48.2399C228.592 48.5399 228.954 49.0799 228.833 49.9199C228.713 50.5799 228.171 51.1199 227.388 51.2999C226.364 51.5399 225.46 51.3599 224.557 50.8799C224.316 50.7599 224.135 50.6399 224.316 50.3399C224.496 50.0399 224.677 50.1599 224.858 50.2799C225.641 50.6999 226.484 50.8799 227.327 50.5199C227.809 50.3399 228.171 49.9799 228.05 49.4399C227.99 48.8999 227.568 48.7199 227.086 48.6599C226.725 48.5999 226.424 48.5999 226.062 48.6599C225.821 48.6599 225.761 48.5399 225.761 48.2999C225.761 48.0599 225.882 47.9999 226.062 47.9999C226.303 47.9999 226.605 47.9999 226.845 47.9999C227.448 47.9399 227.809 47.6399 227.809 47.0399C227.869 46.4999 227.508 46.2599 227.026 46.0799C226.303 45.8999 225.581 46.0199 224.978 46.3799C224.797 46.4999 224.677 46.7399 224.436 46.3799C224.255 46.0799 224.436 45.9599 224.617 45.8399C225.46 45.2999 226.424 45.2399 227.388 45.4799C227.99 45.5999 228.472 46.0199 228.592 46.6799C228.773 47.3399 228.472 47.8199 227.749 48.2399Z" fill="#111111"/>
<path d="M175.163 45.4199C175.886 45.4199 176.669 45.4199 177.392 45.4199C177.693 45.4199 177.814 45.4799 177.814 45.7799C177.814 46.1399 177.573 46.1399 177.332 46.1399H177.272C176.669 46.1399 175.946 45.9599 175.585 46.2599C175.224 46.6199 175.465 47.3999 175.465 47.9999C175.465 48.9599 175.465 49.9199 175.465 50.8799C175.465 51.1799 175.465 51.2999 175.103 51.2999C174.742 51.2999 174.742 51.1199 174.742 50.8799C174.742 49.4999 174.742 48.1199 174.742 46.7399C174.742 46.3199 174.621 46.1999 174.2 46.1999C173.718 46.2599 173.296 46.1999 172.814 46.1999C172.573 46.1999 172.393 46.1999 172.393 45.8399C172.393 45.4799 172.513 45.4199 172.814 45.4199C173.718 45.4199 174.441 45.4199 175.163 45.4199Z" fill="#111111"/>
<path d="M212.389 48.48C212.389 49.26 212.389 50.04 212.389 50.82C212.389 51.06 212.449 51.3 212.027 51.3C211.666 51.3 211.666 51.06 211.666 50.82C211.666 49.2 211.666 47.58 211.666 45.96C211.666 45.66 211.666 45.48 212.088 45.48C212.509 45.48 212.389 45.78 212.389 46.02C212.389 46.8 212.389 47.64 212.389 48.48Z" fill="#111111"/>
<path d="M217.089 44.1001C216.306 44.1001 215.703 43.8601 215.402 43.1401C215.342 42.9601 215.101 42.6601 215.402 42.5401C215.643 42.4201 215.884 42.5401 216.005 42.9001C216.245 43.5001 216.848 43.74 217.45 43.56C217.812 43.44 218.053 43.2001 218.113 42.8401C218.173 42.4801 218.474 42.4201 218.715 42.5401C218.956 42.6601 218.775 42.9001 218.715 43.0801C218.534 43.7401 217.932 44.1001 217.089 44.1001Z" fill="#111111"/>
<path d="M127.216 5.75984C122.759 11.8199 118.362 17.8799 113.904 24.0599C116.253 23.5799 118.482 23.1599 120.831 22.6799C117.277 27.1799 113.784 31.5599 110.23 36.0599C112.157 36.0599 114.025 36.0599 115.892 36.0599C115.892 36.2999 115.711 36.4199 115.591 36.5999C114.266 38.3399 112.941 40.0199 111.676 41.7599C111.314 42.2399 111.133 42.2399 110.712 41.8799C107.158 38.4599 104.869 34.3799 104.146 29.5199C102.701 19.7399 108.363 10.3199 117.699 6.89985C120.53 5.87984 123.421 5.51984 126.433 5.63984C126.614 5.63984 126.795 5.63984 126.915 5.69984C126.975 5.69984 127.036 5.75984 127.216 5.75984Z" fill="#F4F4F4"/>
<path d="M115.23 48.54C115.592 47.88 116.074 47.88 116.736 48.12C126.013 51.3 134.325 49.68 141.373 42.9C148.661 35.88 150.167 25.02 145.469 16.08C145.348 15.9 145.047 15.72 145.408 15.42C145.77 15.12 145.95 15 146.252 15.54C151.914 25.98 148.842 39.3 138.963 46.14C131.855 51.12 124.085 51.9 115.953 48.84C115.712 48.72 115.471 48.6 115.23 48.54Z" fill="#F4F4F4"/>
<path d="M203.775 28.98C204.679 27.18 205.522 25.38 206.426 23.46C207.329 25.32 208.233 27.12 209.136 28.98C207.329 28.98 205.582 28.98 203.775 28.98Z" fill="#F4F4F4"/>
<path d="M69.1493 24.5999C68.2458 24.5999 67.3422 24.5999 66.4989 24.5999C66.1375 24.5999 66.0171 24.5399 66.0773 24.1799C66.0773 23.0399 66.0773 21.9599 66.0773 20.8199C66.0773 20.5199 66.1978 20.3999 66.4989 20.3999C68.306 20.3999 70.0528 20.3999 71.8599 20.3999C73.0044 20.3999 73.8476 21.4199 73.8476 22.5599C73.7874 23.6399 72.9441 24.5399 71.7996 24.5999C70.8961 24.5999 69.9926 24.5999 69.1493 24.5999Z" fill="#F4F4F4"/>
<path d="M194.68 50.7001C193.415 50.7001 192.451 49.6201 192.451 48.1201C192.451 47.0401 193.535 46.1401 194.74 46.1401C196.065 46.1401 196.909 47.0401 196.909 48.3601C196.909 49.6801 195.945 50.7001 194.68 50.7001Z" fill="#F4F4F4"/>
<path d="M250.398 50.5801C251.061 49.2601 251.181 47.9401 251.242 46.5601C251.242 46.2001 251.362 46.0801 251.724 46.0801C252.326 46.1401 253.169 45.8401 253.531 46.2001C253.832 46.5001 253.651 47.3401 253.651 47.9401C253.651 48.6601 253.651 49.4401 253.651 50.1601C253.651 50.4601 253.591 50.5801 253.229 50.5801C252.326 50.5201 251.362 50.5801 250.398 50.5801Z" fill="#F4F4F4"/>
<path d="M179.682 48.5401C179.682 48.3001 179.682 48.1201 179.682 47.8801C179.682 46.7401 179.862 46.4401 180.766 46.1401C181.669 45.8401 182.754 46.0201 183.296 46.6801C184.019 47.5801 183.958 49.1401 183.175 49.9801C182.452 50.7601 180.886 50.8801 179.983 50.2801C179.742 50.1601 179.742 49.9801 179.742 49.7401C179.682 49.3801 179.682 48.9601 179.682 48.5401Z" fill="#F4F4F4"/>
<path d="M238.29 48.6002C238.651 48.6602 239.073 48.6602 239.434 48.7202C239.916 48.7802 240.217 49.0802 240.278 49.5602C240.338 50.0402 240.037 50.3402 239.555 50.5202C238.892 50.7602 238.169 50.6402 237.507 50.6402C237.386 50.6402 237.266 50.5802 237.266 50.4602C237.266 49.9202 237.145 49.3202 237.326 48.8402C237.386 48.3602 237.928 48.7202 238.29 48.6002Z" fill="#F4F4F4"/>
<path d="M238.291 47.9401C237.207 47.9401 237.267 47.9401 237.207 46.9201C237.207 46.3201 237.267 45.9601 237.99 46.0801C238.412 46.1401 238.833 46.0801 239.195 46.1401C239.677 46.2001 240.038 46.5001 240.038 47.0401C240.038 47.5801 239.677 47.8201 239.195 47.9401C238.894 48.0001 238.592 47.9401 238.291 47.9401Z" fill="#F4F4F4"/>
<path d="M247.626 48.36C247.626 49.68 246.663 50.7 245.337 50.7C243.952 50.7 242.988 49.74 242.988 48.36C242.988 47.04 243.952 46.02 245.277 45.96C246.602 45.96 247.626 46.98 247.626 48.36Z" fill="#F4F4F4"/>
<path d="M232.389 48.3599C233.352 48.3599 233.834 48.6599 233.895 49.2599C233.895 50.0399 233.112 50.6399 232.148 50.6399C231.365 50.6399 230.883 50.1599 230.883 49.4999C230.883 48.8399 231.485 48.3599 232.389 48.3599Z" fill="#F4F4F4"/>
<path d="M207.09 49.32C207.09 47.88 207.15 47.88 208.596 48.12C209.258 48.24 209.62 48.6 209.62 49.26C209.62 49.98 209.319 50.4 208.656 50.52C207.331 50.82 207.09 50.64 207.09 49.32Z" fill="#F4F4F4"/>
</g>
<defs>
<clipPath id="clip0_508_11899">
<rect width="256" height="54" fill="white"/>
</clipPath>
</defs>
</svg>
