<svg width="206" height="44" viewBox="0 0 206 44" fill="none" xmlns="http://www.w3.org/2000/svg">
<g clip-path="url(#clip0_433_7623)">
<path d="M102.806 44C68.7313 44 34.6565 44 0.581647 44C0.0969412 44 0 43.9022 0 43.4133C0 29.0889 0 14.8133 0 0.488889C0 0.0488889 0.0969412 0 0.484706 0C68.6828 0 136.832 0 205.031 0C205.467 0 205.564 0.0977778 205.564 0.537778C205.564 14.8622 205.564 29.1378 205.564 43.4622C205.564 43.9022 205.467 44 205.031 44C170.956 44 136.881 44 102.806 44Z" fill="white"/>
<path d="M103.969 13.2489C106.054 12.9067 107.944 12.6133 110.028 12.2711C106.199 15.84 102.467 19.36 98.6376 22.9289C100.722 22.9289 102.661 22.9289 104.648 22.9289C104.648 22.9778 104.648 23.0267 104.696 23.0756C98.1529 28.9422 91.6094 34.8578 85.0174 40.7733C84.9689 40.5289 85.0659 40.4311 85.1628 40.2844C85.7445 39.5511 86.2776 38.7689 86.8593 38.0844C87.1016 37.7911 87.0047 37.5956 86.7624 37.4C83.224 34.2711 80.9459 30.36 80.0734 25.6667C78.7647 18.6267 80.4612 12.3689 85.3082 7.08889C89.7675 2.24887 95.4386 0.0488738 101.982 0.439985C105.472 0.63554 108.768 1.61332 111.676 3.61776C112.112 3.9111 112.112 4.05776 111.773 4.44887C109.35 7.13778 106.926 9.87555 104.551 12.5644C104.309 12.8089 104.163 13.0044 103.969 13.2489Z" fill="#ED1D25"/>
<path d="M33.542 21.6089C33.542 19.1156 33.542 16.6711 33.542 14.1778C33.542 13.2 33.8813 12.8089 34.8507 12.8089C38.3891 12.8089 41.8789 12.8089 45.4173 12.8089C46.6291 12.8089 47.4531 13.5911 47.5015 14.6667C47.5015 15.7911 46.6775 16.5733 45.4173 16.5733C42.8968 16.5733 40.3763 16.5733 37.8559 16.5733C37.4681 16.5733 37.3227 16.6222 37.3227 17.0622C37.3712 17.8933 37.3712 18.6756 37.3227 19.5067C37.3227 19.8978 37.4681 19.9956 37.8074 19.9956C39.7462 19.9956 41.6851 19.9956 43.6239 19.9956C44.6902 19.9956 45.4173 20.7289 45.5142 21.7556C45.6112 22.6844 44.9811 23.5644 44.0601 23.8089C43.8662 23.8578 43.6239 23.8577 43.43 23.8577C41.5396 23.8577 39.6493 23.8577 37.8074 23.8577C37.4196 23.8577 37.3227 23.9555 37.3227 24.3466C37.3712 25.1777 37.3712 25.96 37.3227 26.7911C37.3227 27.1822 37.4681 27.28 37.8074 27.28C40.3279 27.28 42.8483 27.28 45.3688 27.28C46.6291 27.28 47.4531 28.0622 47.5015 29.1867C47.5015 30.36 46.6775 31.1422 45.3688 31.1422C42.1213 31.1422 38.9222 31.1422 35.6747 31.1422C34.3175 31.1422 33.5905 30.4088 33.5905 28.9911C33.542 26.4977 33.542 24.0533 33.542 21.6089Z" fill="#2C3033"/>
<path d="M89.8164 39.8444C90.7858 38.9644 91.8037 38.0844 92.7246 37.2044C92.967 37.0089 93.1124 37.1067 93.3548 37.2044C95.7298 38.3289 98.2503 38.8178 100.868 38.8178C108.429 38.7689 115.457 33.0489 117.057 25.6178C118.075 20.7289 117.251 16.1333 114.391 12.0267C114.343 11.9289 114.197 11.88 114.246 11.7333C115.845 11.6356 116.815 11 117.299 9.19111C122.922 16.3778 123.407 28.0623 115.991 36.1289C108.381 44.3912 96.8446 44.3911 89.8164 39.8444Z" fill="#2C3033"/>
<path d="M137.608 21.9511C137.608 24.2978 137.608 26.6444 137.608 29.04C137.608 30.2622 136.833 31.0933 135.766 31.1422C134.652 31.1422 133.828 30.3111 133.828 29.04C133.828 25.1289 133.828 21.1689 133.828 17.2578C133.828 16.7689 133.731 16.6222 133.246 16.6711C131.549 16.72 129.853 16.72 128.157 16.6711C127.672 16.6711 127.478 16.7689 127.478 17.3067C127.526 21.2178 127.478 25.1289 127.526 29.04C127.526 30.2622 126.654 31.1422 125.588 31.1422C124.521 31.1422 123.697 30.2622 123.697 29.0889C123.697 24.3955 123.697 19.6533 123.697 14.96C123.697 13.64 124.473 12.9067 125.782 12.9067C129.078 12.9067 132.325 12.9067 135.621 12.9067C136.978 12.9067 137.705 13.64 137.705 15.0089C137.608 17.2578 137.608 19.6044 137.608 21.9511Z" fill="#2C3033"/>
<path d="M11.1483 23.8577C9.45185 23.8577 7.85232 23.8577 6.20432 23.8577C4.94408 23.8577 4.12008 22.9777 4.16855 21.8044C4.21702 20.7777 5.04102 20.0444 6.25279 20.0444C7.65844 20.0444 9.06408 20.0444 10.5182 20.0444C10.7121 20.0444 10.906 20.0444 11.1968 20.0444C10.4213 18.2844 9.2095 17.2088 7.41608 16.7688C6.15585 16.4755 4.94408 16.6222 3.82926 17.3066C3.39302 17.5511 2.95679 17.8444 2.47208 17.9422C1.59961 18.0888 0.775613 17.6977 0.387849 16.9644C8.47727e-05 16.2311 0.0970258 15.4 0.727143 14.7644C1.59961 13.8355 2.76291 13.4444 3.9262 13.1022C8.91867 11.7822 14.0566 14.96 15.1229 19.9466C16.1893 25.1288 12.8933 30.1155 7.75538 30.9955C5.33185 31.3866 3.1022 30.9466 1.06644 29.48C0.387849 28.9911 0.0485552 28.3555 0.242438 27.4755C0.53326 26.2044 1.74502 25.6177 2.90832 26.1555C3.73232 26.5466 4.45938 27.0355 5.33185 27.1822C7.80385 27.6222 10.1304 26.3022 11.1483 23.8577Z" fill="#2C3033"/>
<path d="M31.0696 22C31.0696 24.3467 31.0696 26.6933 31.0696 29.0889C31.0696 30.3111 30.2941 31.1422 29.1793 31.1422C28.1129 31.1422 27.2889 30.3111 27.2889 29.1378C27.2889 27.5733 27.2889 25.96 27.2889 24.3956C27.2889 24.0533 27.2404 23.9067 26.8527 23.9067C25.0593 23.9556 23.2659 23.9067 21.4724 23.9067C21.0847 23.9067 20.9877 24.0044 20.9877 24.3956C20.9877 25.96 20.9877 27.5244 20.9877 29.0889C20.9877 30.3111 20.1637 31.1911 19.0489 31.1911C17.9341 31.1911 17.207 30.3111 17.207 29.0889C17.207 24.3956 17.207 19.7022 17.207 15.0089C17.207 13.7378 17.9826 12.9067 19.0974 12.9067C20.2122 12.9067 20.9877 13.7867 20.9877 15.0089C20.9877 16.5244 20.9877 18.0889 20.9877 19.6044C20.9877 19.9467 21.0362 20.0933 21.424 20.0933C23.2174 20.0444 25.0108 20.0933 26.8042 20.0933C27.192 20.0933 27.2889 19.9956 27.2889 19.6044C27.2889 18.04 27.2889 16.4267 27.2889 14.8622C27.2889 14.0311 27.6282 13.3956 28.4037 13.0533C29.1308 12.76 29.8094 12.8089 30.4395 13.2978C30.9242 13.6889 31.1181 14.2267 31.1181 14.8133C31.0211 17.2089 31.0696 19.6044 31.0696 22Z" fill="#2C3033"/>
<path d="M165.964 12.8089C166.933 12.8089 167.515 13.1511 167.854 13.8355C170.132 18.6266 172.556 23.3689 174.737 28.2089C175.367 29.5778 174.785 30.7511 173.428 31.0444C172.604 31.1911 171.829 30.8 171.392 29.9688C171.053 29.2355 170.714 28.5511 170.374 27.8178C170.278 27.5733 170.132 27.4756 169.841 27.4756C167.418 27.4756 164.946 27.4756 162.522 27.4756C162.231 27.4756 162.134 27.5733 161.989 27.8178C161.65 28.5511 161.31 29.2844 160.923 30.0178C160.535 30.8 159.759 31.1911 159.032 31.0933C158.208 30.9955 157.53 30.4089 157.384 29.5778C157.287 29.0889 157.433 28.6489 157.627 28.2089C158.499 26.1556 159.469 24.1511 160.438 22.1466C161.747 19.4088 163.104 16.6711 164.413 13.9333C164.752 13.2 165.334 12.8578 165.964 12.8089Z" fill="#2C3033"/>
<path d="M49.3428 21.56C49.3428 19.1156 49.3428 16.6712 49.3428 14.2756C49.3428 13.2001 49.6821 12.8578 50.7485 12.8578C53.0751 12.8578 55.3532 12.8578 57.6798 12.8578C60.7819 12.8578 63.2054 15.3022 63.2054 18.3822C63.2054 21.4133 60.7334 23.8578 57.6798 23.9067C56.3711 23.9067 55.0624 23.9067 53.7052 23.9067C53.2689 23.9067 53.172 23.9556 53.172 24.4444C53.2205 26.0089 53.172 27.6223 53.172 29.1867C53.172 30.2623 52.4934 31.0445 51.4271 31.1423C50.4577 31.2401 49.5367 30.5067 49.3913 29.48C49.3428 29.04 49.3428 28.5512 49.3428 28.0623C49.2944 25.8623 49.3428 23.7111 49.3428 21.56Z" fill="#2C3033"/>
<path d="M183.316 12.8089C185.303 12.8089 187.193 13.2488 188.841 14.5688C190.102 15.5955 189.811 17.3067 188.357 17.8444C187.92 17.9911 187.436 17.9911 186.999 17.7956C186.612 17.6 186.224 17.4044 185.788 17.2089C183.849 16.2311 181.958 16.4756 180.31 17.7956C178.566 19.1644 177.887 21.0222 178.42 23.1733C178.905 25.3244 180.31 26.6444 182.443 27.1333C183.703 27.4267 184.915 27.2311 186.078 26.5956C186.515 26.3511 186.951 26.0577 187.436 25.96C188.26 25.8133 189.035 26.2533 189.374 26.9867C189.762 27.72 189.617 28.6 188.987 29.1867C188.017 30.1156 186.757 30.6044 185.448 30.8488C180.214 31.9244 175.463 28.6488 174.494 23.3688C173.573 18.3333 177.499 13.2488 182.54 12.8577C182.831 12.8577 183.073 12.8089 183.316 12.8089Z" fill="#2C3033"/>
<path d="M147.545 19.1156C147.011 20.24 146.478 21.3156 145.994 22.3422C144.782 24.8356 143.618 27.3289 142.407 29.8222C141.825 31.0444 140.516 31.3867 139.498 30.6533C138.771 30.1156 138.578 29.3333 138.917 28.5022C139.595 26.7422 140.468 25.0311 141.292 23.32C142.794 20.1911 144.297 17.0622 145.8 13.9333C146.139 13.2 146.721 12.8089 147.545 12.76C148.32 12.76 148.95 13.1022 149.29 13.7867C151.568 18.5778 153.991 23.2711 156.124 28.1111C156.463 28.8933 156.56 29.6267 155.978 30.3111C155.058 31.4356 153.458 31.24 152.779 29.8711C151.907 28.0622 151.034 26.2533 150.162 24.4933C149.338 22.7822 148.466 20.9733 147.545 19.1156Z" fill="#2C3033"/>
<path d="M196.209 23.1244C196.209 21.12 196.209 19.1156 196.209 17.1111C196.209 16.72 196.112 16.6222 195.724 16.6222C194.755 16.6711 193.737 16.6222 192.767 16.6222C191.652 16.6222 190.877 15.84 190.877 14.7644C190.877 13.64 191.604 12.8089 192.719 12.8089C196.354 12.8089 199.941 12.8089 203.576 12.8089C204.643 12.8089 205.418 13.6889 205.418 14.7156C205.418 15.7422 204.594 16.5733 203.528 16.5733C202.558 16.5733 201.589 16.6222 200.62 16.5733C200.135 16.5733 199.989 16.6711 199.989 17.16C200.038 21.0222 199.989 24.9333 199.989 28.7956C199.989 29.9689 199.553 30.7022 198.681 30.9466C197.42 31.3377 196.209 30.5066 196.209 29.1377C196.209 27.1822 196.209 25.1288 196.209 23.1244Z" fill="#2C3033"/>
<path d="M64.8047 21.6089C64.8047 19.1644 64.8047 16.72 64.8047 14.2267C64.8047 13.1511 65.144 12.8089 66.2104 12.8089C69.7488 12.8089 73.2871 12.8089 76.8255 12.8089C77.7949 12.8089 78.5219 13.3956 78.7158 14.2267C78.9097 15.1067 78.4735 16.0355 77.6979 16.4266C77.3586 16.5733 77.0193 16.6222 76.68 16.6222C74.1596 16.6222 71.6876 16.6222 69.1671 16.6222C68.7309 16.6222 68.5855 16.72 68.5855 17.2089C68.5855 21.1689 68.5855 25.08 68.5855 29.04C68.5855 30.5067 67.4222 31.4844 66.1135 31.0444C65.2895 30.7511 64.8047 30.0666 64.8047 28.9911C64.7563 26.4977 64.8047 24.0533 64.8047 21.6089Z" fill="#2C3033"/>
<path d="M114.585 6.74667C115.748 6.79555 116.572 7.67555 116.524 8.84889C116.475 9.97333 115.603 10.8533 114.439 10.8044C113.276 10.7556 112.452 9.87555 112.452 8.75111C112.452 7.57778 113.373 6.74667 114.585 6.74667Z" fill="#2C3033"/>
<path d="M154.719 37.9867C155.009 37.9867 155.058 37.84 155.155 37.7422C155.882 37.0089 156.997 36.8133 157.869 37.2533C158.742 37.6444 159.178 38.6222 159.032 39.7956C158.936 40.7244 158.208 41.5556 157.288 41.7511C155.785 42.0933 154.525 41.2622 154.282 39.6978C154.137 38.6711 154.185 37.6933 154.525 36.7156C154.912 35.5911 155.785 35.0533 156.9 34.8578C157.336 34.8089 157.772 34.8089 158.112 34.4178C158.257 34.2711 158.354 34.4178 158.402 34.5156C158.499 34.6622 158.548 34.76 158.402 34.9067C158.208 35.1022 157.918 35.2489 157.627 35.2978C157.384 35.3467 157.094 35.3956 156.803 35.4444C155.736 35.64 155.106 36.2756 154.864 37.3511C154.912 37.5467 154.912 37.7911 154.719 37.9867Z" fill="#2C3033"/>
<path d="M200.232 41.9956C200.281 41.6044 200.038 41.1156 200.765 41.1644C200.959 41.1644 201.008 40.8711 201.105 40.6756C201.492 39.6978 201.589 38.6222 201.589 37.5956C201.589 37.1556 201.686 37.0089 202.171 37.0578C202.849 37.1067 203.577 37.0578 204.255 37.0578C204.546 37.0578 204.643 37.1556 204.643 37.4489C204.643 38.5244 204.643 39.6489 204.643 40.7244C204.643 41.0667 204.643 41.3111 205.079 41.2133C205.37 41.1644 205.467 41.2622 205.418 41.5556C205.418 41.9467 205.418 42.2889 205.418 42.68C205.418 42.8756 205.37 42.9733 205.176 42.9733C204.982 42.9733 204.837 42.9244 204.837 42.68C204.837 42.3867 204.982 41.9956 204.788 41.8489C204.546 41.7022 204.158 41.8 203.819 41.8C203.043 41.8 202.316 41.8 201.541 41.8C200.765 41.8 200.765 41.8 200.765 42.5822C200.765 42.7778 200.862 42.9733 200.523 42.9733C200.329 42.9733 200.184 42.9244 200.232 42.68C200.232 42.4356 200.232 42.24 200.232 41.9956Z" fill="#2C3033"/>
<path d="M144.588 41.5555C144.588 42.24 144.588 42.8266 144.588 43.4622C144.588 43.7066 144.588 43.9022 144.249 43.8533C143.909 43.8533 144.006 43.6088 144.006 43.4622C144.006 41.4577 144.006 39.5022 144.006 37.4977C144.006 37.3022 143.861 37.0577 144.249 37.0577C144.636 37.0577 144.539 37.3022 144.588 37.5955C145.266 37.0577 145.993 36.8622 146.769 37.0088C147.205 37.1066 147.545 37.3022 147.884 37.6444C148.562 38.4266 148.659 39.9422 148.029 40.8711C147.399 41.8488 146.187 42.0933 144.588 41.5555Z" fill="#2C3033"/>
<path d="M193.01 39.3067C193.786 39.6978 194.028 39.9911 193.931 40.6267C193.834 41.2622 193.398 41.5556 192.865 41.7022C192.089 41.8978 191.314 41.7511 190.538 41.8C190.296 41.8 190.296 41.6533 190.296 41.5067C190.296 40.1378 190.296 38.72 190.296 37.3511C190.296 37.1067 190.393 37.0578 190.587 37.0578C191.265 37.0578 191.944 36.96 192.622 37.1067C193.156 37.2044 193.592 37.4 193.737 37.9867C193.834 38.5733 193.592 39.0133 193.01 39.3067Z" fill="#2C3033"/>
<path d="M176.142 37.8889C175.173 39.1111 174.3 40.2356 173.428 41.3111C173.331 41.4089 173.234 41.5556 173.137 41.6533C172.992 41.8 172.798 41.7511 172.652 41.7022C172.459 41.6533 172.555 41.4578 172.555 41.36C172.555 40.04 172.555 38.6711 172.555 37.3511C172.555 37.1556 172.507 37.0089 172.798 37.0089C173.04 37.0089 173.137 37.1067 173.137 37.3511C173.137 38.4756 173.137 39.6 173.137 40.8711C174.107 39.6489 174.979 38.5244 175.851 37.4489C175.948 37.3511 176.045 37.2044 176.142 37.1067C176.288 36.96 176.482 37.0089 176.627 37.0578C176.821 37.1067 176.772 37.2533 176.772 37.4C176.772 38.72 176.772 40.0889 176.772 41.4089C176.772 41.6044 176.772 41.8 176.482 41.7511C176.191 41.7511 176.191 41.6044 176.191 41.36C176.142 40.2844 176.142 39.2089 176.142 37.8889Z" fill="#2C3033"/>
<path d="M197.421 36.96C198.875 36.96 199.844 37.9867 199.844 39.4044C199.844 40.8222 198.827 41.8489 197.372 41.8489C195.918 41.8489 194.9 40.7733 194.9 39.3556C194.949 37.8889 195.967 36.96 197.421 36.96Z" fill="#2C3033"/>
<path d="M188.163 39.2089C188.26 37.6933 187.484 37.1067 186.127 37.6444C185.933 37.6933 185.739 37.9867 185.594 37.5956C185.497 37.2533 185.788 37.2533 185.982 37.1556C186.466 36.9111 187.048 36.9111 187.581 37.0089C188.211 37.1067 188.599 37.4978 188.696 38.0844C188.89 39.2089 188.745 40.3822 188.793 41.5067C188.793 41.8 188.648 41.7511 188.454 41.7511C188.018 41.7511 188.308 41.4089 188.163 41.2133C187.63 41.6533 187.048 41.8978 186.321 41.8C185.739 41.7022 185.303 41.3111 185.206 40.7733C185.061 40.0889 185.303 39.5022 185.885 39.2089C186.612 38.7689 187.387 38.8667 188.163 39.2089Z" fill="#2C3033"/>
<path d="M148.95 37.1067C149.483 36.9111 149.677 37.1556 149.871 37.5467C150.404 38.6711 150.937 39.7956 151.471 40.8711C151.471 40.8711 151.519 40.8711 151.568 40.92C152.004 39.7956 152.392 38.72 152.828 37.5956C152.876 37.4489 152.925 37.3511 152.973 37.2045C153.07 36.96 153.313 37.0089 153.506 37.0578C153.749 37.1067 153.603 37.3022 153.555 37.4489C152.876 39.0622 152.246 40.7245 151.568 42.3378C151.422 42.7289 151.228 43.12 150.937 43.4622C150.55 43.9022 149.968 44.0489 149.483 43.7556C149.386 43.7067 149.241 43.6578 149.338 43.4622C149.435 43.3156 149.435 43.1689 149.677 43.2667C150.162 43.4622 150.55 43.2667 150.744 42.8756C151.034 42.3867 151.422 41.9467 151.083 41.3111C150.259 39.8933 149.629 38.4756 148.95 37.1067Z" fill="#2C3033"/>
<path d="M160.341 39.4044C160.341 38.7689 160.341 38.1333 160.341 37.4978C160.341 37.3022 160.244 37.0089 160.632 37.0089C161.068 37.0089 160.874 37.3022 160.923 37.4978C160.923 37.8889 160.923 38.28 160.923 38.6711C160.923 38.9644 160.971 39.0622 161.31 39.0622C162.086 39.0133 162.813 39.0622 163.589 39.0622C163.928 39.0622 163.976 38.9644 163.976 38.6711C163.976 38.2311 163.976 37.7911 163.976 37.3511C163.976 37.1556 164.025 37.0089 164.267 37.0578C164.51 37.0578 164.558 37.1556 164.558 37.4C164.558 38.7689 164.558 40.1867 164.558 41.5556C164.558 41.8 164.461 41.8489 164.219 41.8489C163.976 41.8489 163.928 41.7022 163.928 41.5067C163.928 41.0178 163.928 40.5778 163.928 40.0889C163.928 39.7956 163.879 39.6489 163.54 39.6978C162.765 39.6978 161.989 39.6978 161.214 39.6978C160.971 39.6978 160.874 39.7956 160.874 40.04C160.874 40.48 160.874 40.92 160.874 41.36C160.874 41.5556 160.971 41.8489 160.583 41.8C160.147 41.8 160.341 41.5067 160.293 41.3111C160.293 40.6756 160.341 40.04 160.341 39.4044Z" fill="#2C3033"/>
<path d="M166.06 39.3556C166.06 38.72 166.06 38.0844 166.06 37.4489C166.06 37.2044 166.012 37.0089 166.351 37.0089C166.642 37.0089 166.642 37.2044 166.642 37.4C166.642 37.7911 166.496 38.28 166.739 38.5244C166.932 38.72 167.417 38.5733 167.805 38.6222C168.726 38.6711 169.259 39.16 169.308 39.9911C169.356 40.9689 168.968 41.5067 167.999 41.7022C167.466 41.8 166.932 41.7511 166.399 41.8C166.108 41.8 166.108 41.6533 166.108 41.4578C166.06 40.7244 166.06 40.04 166.06 39.3556Z" fill="#2C3033"/>
<path d="M183.267 39.3067C183.946 39.5511 184.237 39.9911 184.14 40.6756C184.043 41.2133 183.607 41.6533 182.976 41.8C182.152 41.9956 181.425 41.8489 180.698 41.4578C180.504 41.36 180.359 41.2622 180.504 41.0178C180.65 40.7733 180.795 40.8711 180.941 40.9689C181.571 41.3111 182.249 41.4578 182.928 41.1644C183.316 41.0178 183.607 40.7244 183.51 40.2844C183.461 39.8444 183.122 39.6978 182.734 39.6489C182.443 39.6 182.201 39.6 181.91 39.6489C181.716 39.6489 181.668 39.5511 181.668 39.3556C181.668 39.16 181.765 39.1111 181.91 39.1111C182.104 39.1111 182.346 39.1111 182.54 39.1111C183.025 39.0622 183.316 38.8178 183.316 38.3289C183.364 37.8889 183.073 37.6933 182.686 37.5467C182.104 37.4 181.522 37.4978 181.038 37.7911C180.892 37.8889 180.795 38.0844 180.601 37.7911C180.456 37.5467 180.601 37.4489 180.747 37.3511C181.425 36.9111 182.201 36.8622 182.976 37.0578C183.461 37.1556 183.849 37.4978 183.946 38.0356C184.091 38.5733 183.849 38.9644 183.267 39.3067Z" fill="#2C3033"/>
<path d="M140.952 37.0089C141.534 37.0089 142.164 37.0089 142.746 37.0089C142.988 37.0089 143.085 37.0578 143.085 37.3022C143.085 37.5956 142.891 37.5956 142.697 37.5956H142.649C142.164 37.5956 141.582 37.4489 141.292 37.6933C141.001 37.9867 141.195 38.6222 141.195 39.1111C141.195 39.8933 141.195 40.6756 141.195 41.4578C141.195 41.7022 141.195 41.8 140.904 41.8C140.613 41.8 140.613 41.6533 140.613 41.4578C140.613 40.3333 140.613 39.2089 140.613 38.0844C140.613 37.7422 140.516 37.6444 140.177 37.6444C139.789 37.6933 139.45 37.6444 139.062 37.6444C138.868 37.6444 138.723 37.6444 138.723 37.3511C138.723 37.0578 138.82 37.0089 139.062 37.0089C139.789 37.0089 140.371 37.0089 140.952 37.0089Z" fill="#2C3033"/>
<path d="M170.907 39.5022C170.907 40.1378 170.907 40.7733 170.907 41.4089C170.907 41.6044 170.955 41.8 170.616 41.8C170.325 41.8 170.325 41.6044 170.325 41.4089C170.325 40.0889 170.325 38.7689 170.325 37.4489C170.325 37.2044 170.325 37.0578 170.664 37.0578C171.004 37.0578 170.907 37.3022 170.907 37.4978C170.907 38.1333 170.907 38.8178 170.907 39.5022Z" fill="#2C3033"/>
<path d="M174.688 35.9333C174.058 35.9333 173.574 35.7378 173.331 35.1511C173.283 35.0044 173.089 34.76 173.331 34.6622C173.525 34.5644 173.719 34.6622 173.816 34.9556C174.01 35.4444 174.495 35.64 174.979 35.4933C175.27 35.3956 175.464 35.2 175.512 34.9067C175.561 34.6133 175.803 34.5644 175.997 34.6622C176.191 34.76 176.046 34.9556 175.997 35.1022C175.852 35.64 175.367 35.9333 174.688 35.9333Z" fill="#2C3033"/>
<path d="M102.37 4.69332C98.7829 9.63111 95.2445 14.5689 91.6577 19.6044C93.5481 19.2133 95.3415 18.8711 97.2318 18.48C94.3721 22.1467 91.5608 25.7156 88.701 29.3822C90.2521 29.3822 91.7546 29.3822 93.2572 29.3822C93.2572 29.5778 93.1118 29.6756 93.0149 29.8222C91.9485 31.24 90.8822 32.6089 89.8643 34.0267C89.5735 34.4178 89.4281 34.4178 89.0888 34.1244C86.229 31.3378 84.3871 28.0133 83.8055 24.0533C82.6422 16.0844 87.1984 8.40889 94.7114 5.62222C96.9895 4.7911 99.3161 4.49776 101.74 4.59554C101.885 4.59554 102.03 4.59554 102.127 4.64443C102.176 4.64443 102.224 4.69332 102.37 4.69332Z" fill="white"/>
<path d="M92.7246 39.5511C93.0154 39.0133 93.4032 39.0133 93.9364 39.2089C101.401 41.8 108.09 40.48 113.761 34.9556C119.626 29.2356 120.838 20.3867 117.057 13.1022C116.96 12.9556 116.718 12.8089 117.008 12.5644C117.299 12.32 117.445 12.2222 117.687 12.6622C122.243 21.1689 119.771 32.0222 111.822 37.5956C106.102 41.6533 99.8498 42.2889 93.3063 39.7956C93.1124 39.6978 92.9185 39.6 92.7246 39.5511Z" fill="white"/>
<path d="M163.976 23.6133C164.703 22.1467 165.381 20.68 166.108 19.1156C166.835 20.6311 167.562 22.0978 168.289 23.6133C166.835 23.6133 165.43 23.6133 163.976 23.6133Z" fill="white"/>
<path d="M55.6441 20.0444C54.917 20.0444 54.1899 20.0444 53.5114 20.0444C53.2205 20.0444 53.1236 19.9956 53.1721 19.7022C53.1721 18.7733 53.1721 17.8933 53.1721 16.9644C53.1721 16.72 53.269 16.6222 53.5114 16.6222C54.9655 16.6222 56.3711 16.6222 57.8252 16.6222C58.7462 16.6222 59.4248 17.4533 59.4248 18.3822C59.3763 19.2622 58.6977 19.9956 57.7768 20.0444C57.0497 20.0444 56.3226 20.0444 55.6441 20.0444Z" fill="white"/>
<path d="M156.657 41.3111C155.639 41.3111 154.863 40.4311 154.863 39.2089C154.863 38.3289 155.736 37.5956 156.705 37.5956C157.772 37.5956 158.45 38.3289 158.45 39.4044C158.45 40.48 157.675 41.3111 156.657 41.3111Z" fill="white"/>
<path d="M201.492 41.2133C202.025 40.1378 202.122 39.0622 202.171 37.9378C202.171 37.6444 202.268 37.5467 202.559 37.5467C203.043 37.5956 203.722 37.3511 204.013 37.6444C204.255 37.8889 204.11 38.5733 204.11 39.0622C204.11 39.6489 204.11 40.2844 204.11 40.8711C204.11 41.1156 204.061 41.2133 203.77 41.2133C203.043 41.1644 202.268 41.2133 201.492 41.2133Z" fill="white"/>
<path d="M144.588 39.5511C144.588 39.3556 144.588 39.2089 144.588 39.0133C144.588 38.0844 144.733 37.84 145.46 37.5956C146.187 37.3511 147.06 37.4978 147.496 38.0356C148.078 38.7689 148.029 40.04 147.399 40.7244C146.818 41.36 145.557 41.4578 144.83 40.9689C144.636 40.8711 144.636 40.7244 144.636 40.5289C144.588 40.2356 144.588 39.8933 144.588 39.5511Z" fill="white"/>
<path d="M191.749 39.6C192.04 39.6489 192.379 39.6488 192.67 39.6977C193.058 39.7466 193.3 39.9911 193.349 40.3822C193.397 40.7733 193.155 41.0177 192.767 41.1644C192.234 41.3599 191.652 41.2622 191.119 41.2622C191.022 41.2622 190.925 41.2133 190.925 41.1156C190.925 40.6756 190.828 40.1867 190.974 39.7956C191.022 39.4044 191.458 39.6978 191.749 39.6Z" fill="white"/>
<path d="M191.749 39.0622C190.877 39.0622 190.925 39.0622 190.877 38.2311C190.877 37.7422 190.925 37.4489 191.507 37.5467C191.846 37.5956 192.186 37.5467 192.476 37.5956C192.864 37.6445 193.155 37.8889 193.155 38.3289C193.155 38.7689 192.864 38.9645 192.476 39.0622C192.234 39.1111 191.992 39.0622 191.749 39.0622Z" fill="white"/>
<path d="M199.263 39.4044C199.263 40.48 198.487 41.3111 197.421 41.3111C196.306 41.3111 195.53 40.5289 195.53 39.4044C195.53 38.3289 196.306 37.4978 197.372 37.4489C198.439 37.4489 199.263 38.28 199.263 39.4044Z" fill="white"/>
<path d="M187 39.4044C187.775 39.4044 188.163 39.6489 188.212 40.1378C188.212 40.7733 187.582 41.2622 186.806 41.2622C186.176 41.2622 185.788 40.8711 185.788 40.3333C185.788 39.7956 186.273 39.4044 187 39.4044Z" fill="white"/>
<path d="M166.642 40.1867C166.642 39.0133 166.69 39.0133 167.853 39.2089C168.387 39.3067 168.677 39.6 168.677 40.1378C168.677 40.7244 168.435 41.0667 167.902 41.1644C166.835 41.4089 166.642 41.2622 166.642 40.1867Z" fill="white"/>
</g>
<defs>
<clipPath id="clip0_433_7623">
<rect width="206" height="44" fill="white"/>
</clipPath>
</defs>
</svg>
